<svg xmlns="http://www.w3.org/2000/svg" viewBox="0 0 463 467.99"><defs><style>.cls-1,.cls-12,.cls-15,.cls-16,.cls-2{fill:#fff;}.cls-1,.cls-12,.cls-2{stroke:#000;}.cls-1,.cls-12,.cls-15,.cls-2,.cls-23{stroke-miterlimit:10;}.cls-1{stroke-width:3px;}.cls-2{stroke-dasharray:12;}.cls-3{fill:#d3eaff;}.cls-4{fill:#e9f7ff;}.cls-5{fill:#607a54;}.cls-6{fill:#9fdd7f;}.cls-7{fill:#476832;}.cls-8{fill:#b91800;}.cls-9{fill:#d01000;}.cls-10{fill:#d02c00;}.cls-11{fill:#e72b00;}.cls-12{font-size:154px;font-family:aliensandcows, aliens and cows;}.cls-12,.cls-23{stroke-width:2px;}.cls-13{letter-spacing:0.5em;}.cls-14{letter-spacing:0em;}.cls-15{stroke:#fff;stroke-width:21px;}.cls-17{fill:#030701;}.cls-18{fill:#eaeaea;}.cls-19{opacity:0.68;}.cls-20{opacity:0.33;}.cls-21{opacity:0.13;}.cls-22{opacity:0.56;}.cls-23{fill:none;stroke:#030701;}</style></defs><g id="Layer_1" data-name="Layer 1"><path class="cls-1" d="M434,197.45a196.67,196.67,0,0,1-3.45,38.09c-3.53,17.22-9.67,33.54-21.75,55.4C389.33,326.12,363.47,356,363.48,356q-20.88,24.24-41.87,49.28-26.19,31.23-51.18,62.07a27.24,27.24,0,0,1-3.27,3.75,28.08,28.08,0,0,1-7.67,5.13c-2.42,1.11-3.82,1.76-5.83,1.68a10.17,10.17,0,0,1-4.81-1.56c-5.09-3-7.77-4.55-10.72-7.75a970.12,970.12,0,0,1-64.26-78.25c-17.17-24-20.61-28.55-27.23-39.14l-.13-.21c-7.07-11.31-10.95-18.1-19-31.78-7.15-12.22-7.82-13.31-15.19-25.87-2.26-3.85-4.34-7.4-6.27-10.74-9.79-16.94-15.67-28.39-20.6-44.39a211.07,211.07,0,0,1-6.74-31c-4.5-35.71,7.1-97.75,54-143.36C149,48.1,192.27,12,255.72,13c66.53,1,109,41.91,122.25,55.17C421.2,111.21,433.39,165.39,434,197.45Z" transform="translate(-9.3 -11.43)"/><path class="cls-2" d="M341.9-31.91" transform="translate(-9.3 -11.43)"/></g><g id="Layer_5" data-name="Layer 5"><path class="cls-3" d="M249.36,182.28a235.27,235.27,0,0,0,18.48,56.43l2.11,2.73,2.73,2.11a13.33,13.33,0,0,0,8.61,1.6c5-.67,10.08-4.46,11.22-9.67,4.69-21.38,8.39-43,12.08-64.54l-26.51-3.59a683.41,683.41,0,0,0,9.15,68q1.72,9.26,3.71,18.46a13.6,13.6,0,0,0,6.21,8.07,13.94,13.94,0,0,0,8.61,1.6,13.52,13.52,0,0,0,11.7-13.26,184.06,184.06,0,0,0-4.7-45.53l-13,17.09.44.05-3.59-.49a10.27,10.27,0,0,1,2.1.6l-3.22-1.36a13.76,13.76,0,0,1,2.64,1.62l-2.73-2.11a46.35,46.35,0,0,1,5.42,5.61l5.75,6.55,11.7,13.32,23.58,26.85,2.73,2.11a10.12,10.12,0,0,0,5,1.6,13,13,0,0,0,8.61-1.6,16,16,0,0,0,4.84-4.85c2-3.17,1.94-6.87,1.37-10.4q-4.53-27.9-10.77-55.49l-26,7.17q10.51,25.29,19.95,51l16.61-16.61q-27.6-6.85-54.6-15.83a13.63,13.63,0,0,0-10.41,1.36,14.07,14.07,0,0,0-5.52,6.46c-2.51,6-.43,13.67,5.52,16.86,9.65,5.15,20.14,8.27,30.82,10.39,9.78,1.94,19.69,3.23,29.41,5.49a97.33,97.33,0,0,1,15.73,4.95l-3.22-1.37A59.88,59.88,0,0,1,385,281.26a13.5,13.5,0,0,0,6.82,1.84,10.21,10.21,0,0,0,5.2-1.16,12.92,12.92,0,0,0,7.81-8.75c3.53-16,4.83-32.47,5.32-48.83.45-15.1.86-30.3.14-45.39-.76-15.78-3.14-31.48-8.87-46.26-3-7.81-6.4-15.52-10-23.1a97.26,97.26,0,0,0-12.75-20.39c-8.92-10.87-21.29-18.72-33.53-25.36-6.26-3.39-12.61-6.6-18.92-9.88-6.7-3.46-13.36-7-20.15-10.33a133.37,133.37,0,0,0-23.34-9.28,110.27,110.27,0,0,0-25.38-3.44,148.18,148.18,0,0,0-44.39,5.38,130.13,130.13,0,0,0-40.41,19.38c-13.18,9.46-25.43,20.25-37.9,30.6l-9,7.43,19.1,19.09a209.61,209.61,0,0,1,35-35.1l-2.73,2.11A141.76,141.76,0,0,1,208,61.57l-3.22,1.36A112.55,112.55,0,0,1,233,55.2l-3.59.48a101.06,101.06,0,0,1,26.69-.07l-3.58-.48a86.61,86.61,0,0,1,21.37,5.79l-3.22-1.36Q274,61,277.21,62.69L284,37.53c-28.8-1.47-58.11-1.42-86.26,5.62-24.09,6-47.42,17.83-64.93,35.65a101.06,101.06,0,0,0-21.05,31.06c-3.16,7.42-5.81,15-8.45,22.61-2.39,6.9-4.85,13.78-7.15,20.71a102.38,102.38,0,0,0-5,23.74,99.49,99.49,0,0,0,.72,21.19,206.27,206.27,0,0,0,10.45,44c2.67,7.33,5.52,14.29,10.72,20.21a28.17,28.17,0,0,0,11.53,7.58c3.94,1.5,8.33,1.73,12.52,1.86,14.41.43,28.8,1.4,43.12,3q5.39.61,10.75,1.33l-3.59-.48q11.3,1.52,22.52,3.53c7.5,1.35,15,3,22.46,4.34,16,2.84,32.7,4.07,48.06-2.33a69.68,69.68,0,0,0,12-6.08,72.66,72.66,0,0,0,10.78-8.7,13.57,13.57,0,0,0-9.55-23.05l-36.13-.43L267,265.92l.39-.31-2.73,2.11a63.89,63.89,0,0,1,13.77-8l-3.22,1.36a64.06,64.06,0,0,1,10.92-3.43,13.56,13.56,0,0,0,8.07-6.21,13.83,13.83,0,0,0,1.6-8.6,12.84,12.84,0,0,0-3.71-7.76,15,15,0,0,0-9.55-4,571.15,571.15,0,0,0-71.18-.6c-5.47.29-10.17,3.15-12.34,8.3a12.87,12.87,0,0,0-.92,7c.37,2.75,1.52,5.89,3.71,7.75a45,45,0,0,0,39.47,10.51l3.23-1.36a10.32,10.32,0,0,0,3.79-3.48,12.88,12.88,0,0,0,2.9-8.18,16,16,0,0,0-1.85-6.81c-1.67-3.18-4.85-5-8.07-6.21a199,199,0,0,0-32.51-9,202,202,0,0,0-36.62-3.83,25.7,25.7,0,0,0-12,2.93,17.68,17.68,0,0,0-6.5,6.24,17.15,17.15,0,0,0-1.74,4,14.52,14.52,0,0,0-.56,4.83,13.46,13.46,0,0,0,1.84,6.81,13.6,13.6,0,0,0,4.84,4.84,136.7,136.7,0,0,0,30,9.9,139.43,139.43,0,0,0,31.64,2.68,152.05,152.05,0,0,0,19.16-2.07l3.23-1.36a10.21,10.21,0,0,0,3.78-3.48,12.8,12.8,0,0,0,2.9-8.18,15.92,15.92,0,0,0-1.84-6.81c-1.67-3.15-4.86-5-8.07-6.2a303,303,0,0,0-43.55-12.22c-8.41-1.7-16.88-3-25.39-4q-5.47-.69-11-1.19a102.67,102.67,0,0,0-10.94-.71c-7.3.13-14.51,3.24-18.1,9.92a21.55,21.55,0,0,0-2.36,6.84,24.22,24.22,0,0,1-1,4.45l1.36-3.22a7.31,7.31,0,0,1-.89,1.56l2.11-2.73a5.08,5.08,0,0,1-.5.54h19.1c-.61-.69-1.2-1.39-1.76-2.11l2.11,2.73a44.6,44.6,0,0,1-5.61-9.78l1.36,3.22a76.33,76.33,0,0,1-4.71-18.77l.48,3.59c-1.26-9.44-1.79-19-2.14-28.54a182.28,182.28,0,0,1,1.15-30.81l-.48,3.59a101.45,101.45,0,0,1,6.62-25.18l-1.36,3.22a80.06,80.06,0,0,1,10.1-17.56l-2.11,2.73a64.69,64.69,0,0,1,11.28-11.45l-2.73,2.11a56.2,56.2,0,0,1,12.28-7.23L169,109.7c16.48-6.91,34.86-6.11,51.76-11.5a13.57,13.57,0,0,0,9.67-14.81,12.82,12.82,0,0,0-3.71-7.75L224,73.53a13.4,13.4,0,0,0-6.82-1.84l-1-.13,3.59.48a51.73,51.73,0,0,1-12.93-3.52L210,69.88c-1.59-.68-3.13-1.43-4.65-2.25V90.94a60.53,60.53,0,0,1,9.16-4.81l-3.23,1.36a88.77,88.77,0,0,1,22.06-5.64l-3.59.49a187.39,187.39,0,0,1,49.06-.17l-3.59-.48a114.61,114.61,0,0,1,28.45,7.49l-3.22-1.36a90.12,90.12,0,0,1,19.75,11.4l-2.73-2.11A75.44,75.44,0,0,1,331,110.54l-2.11-2.73c4.82,6.3,8,13.3,11.07,20.55,3.39,7.93,7.5,15.95,14.25,21.58a13.49,13.49,0,0,0,5.95,3.47A13.51,13.51,0,0,0,376.79,144a42.36,42.36,0,0,0,.59-21.53l-24.67,10.4a54.93,54.93,0,0,1,4.13,7.9l-1.36-3.22c3.22,7.72,4.81,15.95,5.93,24.2l-.48-3.59c2.69,20.24,4.23,40.7,5.38,61.08.29,5.1.73,10.26.08,15.35l.48-3.59a24.59,24.59,0,0,1-1.47,5.71l1.36-3.23a18.83,18.83,0,0,1-2,3.56l24.68,3.22a35.74,35.74,0,0,1-1-4.81l.48,3.58a33.92,33.92,0,0,1,0-8.18l-.49,3.59c.1-.73.22-1.44.35-2.16h-26l9.38,35.28c1.47,5.51,7.18,10.17,13,9.91a16,16,0,0,0,6.81-1.84,13.59,13.59,0,0,0,6.21-8.07,71,71,0,0,0,1.59-13.86,83.25,83.25,0,0,0-1.32-13.91c-1.37-8.26-4.31-16.06-7.66-23.7-6.13-13.94-14.92-26.48-22.16-39.83-4.15-7.65-7.8-15.56-11.19-23.58l1.36,3.23c-3.56-8.45-6.85-17-10.12-25.59-1.29-3.37-3-6.18-6.21-8.06a13.75,13.75,0,0,0-10.4-1.36c-7,2.26-11.41,9.3-9.43,16.6a496.6,496.6,0,0,0,22.2,63.74q3.6,8.49,7.5,16.83l2.11,2.73,2.73,2.11a13.34,13.34,0,0,0,8.61,1.6,12.74,12.74,0,0,0,6.39-2.66c2.11-1.63,4.39-4.26,4.83-7a168.17,168.17,0,0,0-2.08-67.47,13.58,13.58,0,0,0-6.2-8.07,13.87,13.87,0,0,0-8.61-1.6,12.79,12.79,0,0,0-7.75,3.71l-2.11,2.73a13.4,13.4,0,0,0-1.85,6.81,457.07,457.07,0,0,0-3.57,64h27a536.06,536.06,0,0,0-8.07-58.49q-2.7-13.87-6.19-27.59-1.72-6.78-3.64-13.51-1-3.37-2-6.72a28.42,28.42,0,0,0-3.58-8.33A23.07,23.07,0,0,0,338.26,92,34.11,34.11,0,0,0,328,89.66c-4.26-.48-8.55-.43-12.81-1l3.59.48a88.83,88.83,0,0,1-22-6L300,84.48A90.18,90.18,0,0,1,280.29,73L283,75.15a87.84,87.84,0,0,1-11.61-10.79L255.05,85.57a231.49,231.49,0,0,1,38.27,22.67l6.81-25.15a231.74,231.74,0,0,1-59.48-.19l3.59.48a232.94,232.94,0,0,1-28.69-5.71l3.22,24.67c1.11-.62,2.24-1.19,3.41-1.7L219,102a37.68,37.68,0,0,1,9.5-2.53l-3.59.48a53.58,53.58,0,0,1,13.39.18l-3.59-.48a98.41,98.41,0,0,1,18.52,4.62l7.18-26-17.18-5.77-7.18,26a10.36,10.36,0,0,1,2.17.63L235,97.78a16,16,0,0,1,3.11,1.91l-2.73-2.11a110.13,110.13,0,0,1,11.92,11.84q5.66,6.24,10.79,12.91l-2.11-2.73c9.85,12.78,18.38,26.51,26.44,40.47s15.74,28.33,23.86,42.35c4.61,8,9.38,15.81,14.46,23.48a14.15,14.15,0,0,0,6.45,5.52,13,13,0,0,0,8.79.68,16,16,0,0,0,6-3.47,13.5,13.5,0,0,0,4-9.55,336.51,336.51,0,0,0-12-69.29q-2.67-9.28-5.9-18.41l-24.67,10.41a279.6,279.6,0,0,0,24,33.89c2.65,3.23,7.45,4.24,11.34,3.72a13,13,0,0,0,9.87-6.45c6.68-12.44,6.06-27-.29-39.46a41.33,41.33,0,0,0-13.47-14.91c-6.49-4.53-14.42-6.08-22.13-6.89-7.15-.75-14.37-.29-21.51-1.24l3.59.48a40.64,40.64,0,0,1-7.24-1.66v26a41.36,41.36,0,0,1,5.29-1.09l-3.59.49a40.42,40.42,0,0,1,10.25,0l-3.59-.48a41.14,41.14,0,0,1,4.77,1,14,14,0,0,0,10.4-1.36,13.51,13.51,0,0,0-3.23-24.68,179,179,0,0,0-58.34-8,13.71,13.71,0,0,0-11.66,6.68,13.54,13.54,0,0,0,0,13.63c2.36,5.36,7.05,9.56,11.83,12.74,4.24,2.82,9.15,4.66,13.9,6.38a153.24,153.24,0,0,0,32.33,7.52,143.74,143.74,0,0,0,17,1.23l-6.81-25.15A93.67,93.67,0,0,0,280.22,146a117.94,117.94,0,0,0-10.63,15.45c-2.71,4.75-5.17,9.64-7.76,14.45a115.51,115.51,0,0,1-9.64,15.53l2.11-2.73a55.83,55.83,0,0,1-9.83,9.9l2.73-2.11a43.52,43.52,0,0,1-9.49,5.59l3.23-1.36a34,34,0,0,1-8.16,2.23l3.59-.49a28.2,28.2,0,0,1-7.11,0l3.59.48c-.6-.09-1.2-.19-1.79-.32a14.37,14.37,0,0,0-10.4,1.37,13.49,13.49,0,0,0,3.22,24.67,380.06,380.06,0,0,0,50.48,11.93L278,214.07l-107.77-11.2-30.13-3.13c-3.1-.32-7.49,1.71-9.55,3.95a13.83,13.83,0,0,0-3.71,7.75,13.49,13.49,0,0,0,9.67,14.82c19.58,5.25,39.18,10.49,59,15,6.61,1.5,13.25-1.47,15.92-7.81,2.51-5.93.45-13.69-5.52-16.86q-12.82-6.79-25.14-14.48c-7.92-4.95-15.86-10-23.26-15.73l2.73,2.11a41.58,41.58,0,0,1-7.46-7.18l2.12,2.73a23.2,23.2,0,0,1-2.68-4.52l1.36,3.22a19.86,19.86,0,0,1-1.29-4.61l.49,3.59a25.78,25.78,0,0,1,0-6.39l-.48,3.59a82.67,82.67,0,0,1,3.21-12.73q2-6.52,4.21-13,4.4-12.78,9.65-25.25L168,131.13c1.56-3.7,3-7.56,5.44-10.79l-2.11,2.73a15.52,15.52,0,0,1,2.52-2.54l-2.74,2.11a15,15,0,0,1,3-1.67l-3.23,1.36a28.31,28.31,0,0,1,6.73-1.59l-3.59.48a126.21,126.21,0,0,1,32.55.09l-3.58-.48a127.53,127.53,0,0,1,32.42,8.84l-3.23-1.36c5.27,2.24,10.57,4.71,15.14,8.22l-2.73-2.11a27.26,27.26,0,0,1,4.75,4.73l-2.11-2.73a21.24,21.24,0,0,1,2.48,4.31l-1.36-3.22a21.68,21.68,0,0,1,1.22,4.48L249,138.4a24.17,24.17,0,0,1,0,6.47l.49-3.58a37.35,37.35,0,0,1-2.54,8.79l1.36-3.22c-3.2,7.47-8.07,14.17-13,20.58l2.11-2.73a177.3,177.3,0,0,1-31.21,31.21l2.73-2.11c-.93.72-1.86,1.43-2.8,2.13l16.36,21.2L244,190.24l10.7-13.34,5.44-6.78a32.26,32.26,0,0,1,4.87-5.43l-2.73,2.11a10,10,0,0,1,1.44-.87l-3.23,1.36a6.64,6.64,0,0,1,1.58-.45l-3.59.48a4.72,4.72,0,0,1,.84,0l-11.65-6.69,8.08,17c1.77,3.73,6,5.92,9.86,6.44s8.57-.52,11.34-3.71a74.68,74.68,0,0,0,14.48-25.07c1.4-4.06,0-10.4-3.47-13.13a37.33,37.33,0,0,0-6.26-4.36,37.87,37.87,0,0,0-7.17-2.78,13.61,13.61,0,0,0-8.79.68c-2.47,1-5.31,3-6.45,5.52l-26,57.48L258,202a156.61,156.61,0,0,1-7.64-31.42l.48,3.58c-.62-4.71-1-9.46-1.24-14.21a14.18,14.18,0,0,0-3.95-9.55,13.52,13.52,0,0,0-19.1,0,14.79,14.79,0,0,0-4,9.55,153.19,153.19,0,0,0,3.57,42.1l1.36,3.22A10.16,10.16,0,0,0,231,209a12.86,12.86,0,0,0,8.18,2.9,16.06,16.06,0,0,0,6.81-1.84,13.62,13.62,0,0,0,6.21-8.07l10.51-46.51a13.84,13.84,0,0,0-3.47-13.14c-3.19-3.18-8.73-5.1-13.14-3.47A67.42,67.42,0,0,0,233.29,145a91.43,91.43,0,0,0-11.48,8.77A173.88,173.88,0,0,0,206,170.51l22.56,13.14,16.39-52.4.48-3.59a10.11,10.11,0,0,0-1.16-5.2A12.85,12.85,0,0,0,238.7,116a16.08,16.08,0,0,0-6.82-1.85c-3-.13-7.56,1.54-9.54,4A165.6,165.6,0,0,0,192,172.45a155.64,155.64,0,0,0-4.37,15.61,14,14,0,0,0,.68,8.79,12.92,12.92,0,0,0,5.53,6.45,15.88,15.88,0,0,0,6.81,1.84c3.05.14,7.55-1.54,9.54-3.95a273.85,273.85,0,0,0,37.2-58.3,14.67,14.67,0,0,0,1.6-8.61,12.82,12.82,0,0,0-3.71-7.75,16.12,16.12,0,0,0-6-3.47c-2.89-.94-7.89-.52-10.4,1.36a78.26,78.26,0,0,0-7.76,6.4,62.79,62.79,0,0,0-5.76,6.66,67.49,67.49,0,0,0-9.2,16.46l-.48,3.59a10.21,10.21,0,0,0,1.16,5.2,12.85,12.85,0,0,0,5.52,6.45,16.08,16.08,0,0,0,6.82,1.85c3.55.16,7-1.67,9.54-4,2.11-1.89,4.29-3.71,6.52-5.45l-2.73,2.11a119.56,119.56,0,0,1,10.05-6.94l-18.47-18.47-.89,1.18,2.11-2.74a121,121,0,0,1-21.52,21.5l2.73-2.12A120.88,120.88,0,0,1,194,164.66l19.83,8.07a62.07,62.07,0,0,1-4-15.41l.48,3.59c-1.4-10.94-.4-22,1.06-32.86l-.48,3.59c.35-2.6.73-5.19,1.11-7.79a10.26,10.26,0,0,0,.24-5.38,10,10,0,0,0-1.6-5,13.51,13.51,0,0,0-24.68,3.22q-2,5.86-4.35,11.57l1.36-3.23q-2.08,5-4.49,9.76a57.59,57.59,0,0,1-5,8.93l2.11-2.73a11.78,11.78,0,0,1-1.76,1.77l2.74-2.11a8,8,0,0,1-1.32.78l3.22-1.36a5.65,5.65,0,0,1-1,.26l3.59-.48a3,3,0,0,1-.67,0l3.59.48a2.5,2.5,0,0,1-.64-.2l3.23,1.36a2.44,2.44,0,0,1-.61-.39l6.2,8.07-6.11-22a13.51,13.51,0,0,0-22.57-6c-10.87,10.46-15.7,25.11-19.5,39.3a55,55,0,0,0-2.34,13.62,25.57,25.57,0,0,0,6.27,17.16,21.72,21.72,0,0,0,15.61,7.42,18.45,18.45,0,0,0,16.2-8.68,20.08,20.08,0,0,0,2-15.72,17.37,17.37,0,0,0-16.54-12.71c-10.13-.09-17,11.58-11.66,20.32A76.54,76.54,0,0,0,195.91,215a13.84,13.84,0,0,0,7.17,0,13.39,13.39,0,0,0,7-4.84,12.73,12.73,0,0,0,2.65-6.38,14.09,14.09,0,0,0-1.6-8.61,28.44,28.44,0,0,0-10.94-11.4,27.69,27.69,0,0,0-7.23-3,42.23,42.23,0,0,1-5-1.18l3.22,1.36a8.53,8.53,0,0,1-1.41-.8l2.73,2.11a7.74,7.74,0,0,1-.9-.91l2.11,2.73a7.57,7.57,0,0,1-.66-1.18l1.36,3.23a11,11,0,0,1-.57-2.24l.48,3.59c-1.11-8.51,0-17.33,1.18-25.78l-.48,3.59c2.38-17.54,6-36.17-.63-53.29l-19.83,15.25a197.76,197.76,0,0,0,37.72,21.34,13.54,13.54,0,0,0,13.63,0c3.76-2.2,7.19-7.08,6.68-11.66A67.09,67.09,0,0,0,230.49,125,67.17,67.17,0,0,0,226,113.9l-18.47,18.47q29,19,56.43,40.15l-2.73-2.11c1.62,1.26,3.24,2.51,4.85,3.78a15,15,0,0,0,9.55,3.95,13.74,13.74,0,0,0,9.54-3.95c2.36-2.58,4.12-5.95,4-9.55-.15-3.32-1.21-7.39-4-9.55-16.3-12.76-33-25.07-50.08-36.73q-6.92-4.73-13.94-9.31l-3.22-1.36a10.26,10.26,0,0,0-5.38-.24,12.87,12.87,0,0,0-7.76,3.71,16.12,16.12,0,0,0-3.47,6c-1.11,3.44-.21,7.31,1.36,10.4.55,1.08,1.06,2.17,1.53,3.28l-1.36-3.22A48.1,48.1,0,0,1,205.94,139l-.48-3.58c.06.51.13,1,.18,1.53L226,125.3A198.19,198.19,0,0,1,188.23,104L185,102.59l-3.59-.48a13.33,13.33,0,0,0-8.18,2.9,12.86,12.86,0,0,0-4.16,5.4c-1.08,2.56-1.72,6.09-.68,8.79a48.55,48.55,0,0,1,2.8,11l-.48-3.59c1.14,8.82.2,17.7-1,26.46l.48-3.59c-1.36,10.05-3.16,20.15-3.23,30.32a61.38,61.38,0,0,0,.26,6.78,34.33,34.33,0,0,0,.87,5.88,19.15,19.15,0,0,0,14.31,13.68,37.7,37.7,0,0,1,5.82,1.51L185,206.29a17.31,17.31,0,0,1,3.33,2l-2.73-2.11a17.38,17.38,0,0,1,2.73,2.76l-2.11-2.73a18.26,18.26,0,0,1,1.58,2.57L203.08,189q-2.79-.87-5.49-2l3.22,1.36a63.56,63.56,0,0,1-13.94-8.18l2.73,2.11a63.84,63.84,0,0,1-11.09-11.13l2.11,2.73a63.7,63.7,0,0,1-3.81-5.57l-11.65,20.31a3.44,3.44,0,0,1,.55,0l-3.59-.48a4.82,4.82,0,0,1,.75.18L159.64,187a4.84,4.84,0,0,1,.86.48l-2.74-2.11a4.7,4.7,0,0,1,.69.72l-2.12-2.74a6.59,6.59,0,0,1,.51.89L155.48,181a7.08,7.08,0,0,1,.43,1.56l-.49-3.59a7.77,7.77,0,0,1,0,1.67l.48-3.59a7.4,7.4,0,0,1-.41,1.62l1.36-3.22a6.06,6.06,0,0,1-.67,1.19l2.11-2.74a5.53,5.53,0,0,1-.75.78l2.73-2.11a5.08,5.08,0,0,1-1,.55l3.23-1.36a7.24,7.24,0,0,1-1.52.4l3.59-.48a7.82,7.82,0,0,1-1.53,0l3.59.48a8.5,8.5,0,0,1-1.86-.49l3.22,1.36a10.47,10.47,0,0,1-2.07-1.21l2.73,2.11a12.37,12.37,0,0,1-1.75-1.72l2.11,2.73a11.12,11.12,0,0,1-1.45-2.47l1.36,3.22a13.55,13.55,0,0,1-.72-2.8l.48,3.59a20.72,20.72,0,0,1,.09-5.22l-.48,3.58a100.35,100.35,0,0,1,3.17-12.76,112.39,112.39,0,0,1,4-11.72l-1.36,3.22a53.86,53.86,0,0,1,6.5-11.56l-2.11,2.73a40.73,40.73,0,0,1,4-4.43l-22.57-6,3.9,14,2,7.14a15,15,0,0,0,6.89,9.2,15.83,15.83,0,0,0,10.07,1.91c7.64-1,12.63-6.51,16.16-13q3.3-6,6.07-12.28c2.53-5.74,4.89-11.55,6.88-17.5l-26-7.18c-1.57,10.63-3.21,21.33-3.32,32.09-.11,10.48,1.17,21.4,5.19,31.15a13.52,13.52,0,0,0,3.47,6,10.22,10.22,0,0,0,4.34,2.79,13.26,13.26,0,0,0,12-.68,138.63,138.63,0,0,0,21.8-16A137.24,137.24,0,0,0,247.47,152l1.36-3.23a10.26,10.26,0,0,0,.24-5.38,12.87,12.87,0,0,0-3.71-7.75c-4.36-4-11.12-5.34-16.36-2.11A135.07,135.07,0,0,0,209.69,148l22.57,13.14c.11-.3.23-.59.36-.88l-1.37,3.23a52.07,52.07,0,0,1,6.42-11l-2.11,2.73a51.51,51.51,0,0,1,9-9l-2.74,2.12.76-.58L224.1,129.26a261.56,261.56,0,0,1-29.86,49l2.11-2.74q-2.57,3.31-5.23,6.54l22.57,13.13a155.19,155.19,0,0,1,8.35-26.1l-1.36,3.23A155.62,155.62,0,0,1,240.74,138l-2.11,2.73q1.38-1.77,2.8-3.51l-22.56-13.14-16.39,52.4-.48,3.59a10.11,10.11,0,0,0,1.16,5.2,12.85,12.85,0,0,0,5.52,6.45,16.08,16.08,0,0,0,6.82,1.85,13.46,13.46,0,0,0,9.54-4c6.2-7.16,12.5-14.33,20-20.15l-2.73,2.11a56.82,56.82,0,0,1,12-7.13l-3.23,1.36c.73-.31,1.45-.59,2.19-.86l-16.61-16.61-10.51,46.51h26q-1.29-5.76-2.09-11.61l.48,3.59a140.67,140.67,0,0,1-1-26.9h-27A168.25,168.25,0,0,0,232,209.13c1.84,5.17,5.62,8.92,11.23,9.67a12.79,12.79,0,0,0,7-.92c2.47-1,5.31-3,6.46-5.52l26-57.48-15.25,6.2a22.66,22.66,0,0,1,2.82.92L267,160.64a20.55,20.55,0,0,1,4.27,2.45L268.51,161l.39.3-3.47-13.13c-.44,1.27-.92,2.52-1.43,3.77l1.36-3.23A59.08,59.08,0,0,1,258,161.3l2.11-2.73c-.73.93-1.47,1.84-2.24,2.73l21.2,2.73L271,147c-2-4.24-7.2-6.6-11.66-6.68-7.28-.14-13,4.19-17.37,9.59l-9.43,11.76-18.5,23.06-10.69,13.34c-2.22,2.76-4.13,5.8-4,9.55a14,14,0,0,0,2.9,8.18,12.86,12.86,0,0,0,7,4.83c3.32.76,7.55.77,10.41-1.36A193.42,193.42,0,0,0,247.9,194c4.54-5,8.76-10.33,12.8-15.76a101.77,101.77,0,0,0,9.43-14.62c3.43-6.83,5.94-14.07,6.08-21.79a31,31,0,0,0-1.74-11.08,36.64,36.64,0,0,0-7-11.75c-4.06-4.73-9.71-8.27-15.25-11a147.25,147.25,0,0,0-19.47-8,140,140,0,0,0-38.18-6.7,124.75,124.75,0,0,0-18.13.63c-3.81.41-7.8.7-11.48,1.87a27,27,0,0,0-12.08,7.33c-5.21,5.82-7.77,13.07-10.71,20.17q-3.74,9-7,18.21t-6,18.27c-2.07,6.82-4.29,14.17-3.56,21.37a34.13,34.13,0,0,0,4.06,13.72,39.59,39.59,0,0,0,6.57,8.5c4.58,4.6,10.13,8.28,15.46,11.95Q167.39,226.1,184,235.4q4.06,2.28,8.17,4.45l10.41-24.67c-19.79-4.47-39.38-9.71-59-15l-3.58,26.52,107.77,11.2L278,241.07c3.1.32,7.49-1.71,9.54-4a13.87,13.87,0,0,0,3.72-7.75,12.91,12.91,0,0,0-1.61-8.61c-1.78-2.76-4.67-5.66-8.06-6.2a378.5,378.5,0,0,1-50.48-11.93l-7.18,26a41.81,41.81,0,0,0,23-1.39,60.53,60.53,0,0,0,19.58-12c10.14-9.07,16.4-21.41,22.66-33.25a129.1,129.1,0,0,1,11.26-18.35l-2.11,2.74a84.32,84.32,0,0,1,15.14-15.12l-2.74,2.11a87,87,0,0,1,8.91-6c5-2.9,8-9.6,6.2-15.24a13.92,13.92,0,0,0-13-9.92,141.64,141.64,0,0,1-17-1.23l3.59.48a131.09,131.09,0,0,1-33.09-8.73l3.23,1.36a36.67,36.67,0,0,1-7.89-4.44l2.73,2.11a21.49,21.49,0,0,1-3.54-3.53l2.11,2.73a17,17,0,0,1-1.89-3.25l-11.65,20.32a168.7,168.7,0,0,1,27.14,1.41l-3.59-.48a168.26,168.26,0,0,1,27.62,6.15l7.17-26a53.34,53.34,0,0,0-27.48.09c-5.51,1.5-10.18,7.15-9.91,13a14,14,0,0,0,9.91,13c10.95,3.64,22.56,2.13,33.82,3.56l-3.59-.49a37.91,37.91,0,0,1,9.49,2.47l-3.22-1.36a25.92,25.92,0,0,1,5.24,3.06l-2.73-2.11a27.84,27.84,0,0,1,4.95,5l-2.11-2.73a30.94,30.94,0,0,1,3.73,6.45l-1.36-3.22a31.87,31.87,0,0,1,2.08,7.56l-.49-3.59a29,29,0,0,1,0,7.79l.48-3.58a26.61,26.61,0,0,1-1.77,6.42l1.36-3.23c-.31.69-.63,1.36-1,2l21.21-2.73c-1.62-2-3.2-4-4.75-6l2.11,2.73a257.54,257.54,0,0,1-17.15-25.2,13.54,13.54,0,0,0-16.86-5.52c-5.8,2.45-10.06,9.55-7.81,15.92a320.09,320.09,0,0,1,15.38,63.78l-.49-3.59q1.35,10.14,2.06,20.33L344,212.27c-12-18.11-22.22-37.3-32.86-56.22-11.06-19.68-22.75-38.92-36.94-56.53q-5.58-6.93-11.76-13.35c-5.31-5.5-11.39-12.28-19.25-13.7-3.65-.66-7.11-.56-10.4,1.36A13.5,13.5,0,0,0,236,98.51l17.18,5.76a13.5,13.5,0,0,0,15.25-19.83,14.88,14.88,0,0,0-8.07-6.2c-17.79-6.1-38.14-8.88-55.23.79a13.58,13.58,0,0,0,3.23,24.67,243.52,243.52,0,0,0,71.95,8q9.94-.39,19.81-1.65l3.59-.49a10.07,10.07,0,0,0,4.59-2.41,12.91,12.91,0,0,0,4.84-7,16.11,16.11,0,0,0,0-7.18c-.81-3.56-3.41-6-6.2-8.07a231.55,231.55,0,0,0-38.27-22.68c-3.21-1.5-6.86-2.5-10.4-1.36a14,14,0,0,0-7,4.84,12.88,12.88,0,0,0-2.9,8.18,14.8,14.8,0,0,0,4,9.55,98,98,0,0,0,25.87,20.39,99.13,99.13,0,0,0,30.88,10.94c3.79.63,7.63,1.15,11.47,1.42,2.7.19,5.41.19,8.11.52l-3.59-.48a18.08,18.08,0,0,1,4.41,1.12L326.25,116a11.87,11.87,0,0,1,2.07,1.2l-2.73-2.11a9.59,9.59,0,0,1,1.44,1.41l-2.11-2.73a12,12,0,0,1,1.43,2.51L325,113.07a144.52,144.52,0,0,1,4.4,14.89q2.08,7.7,3.94,15.46,3.74,15.66,6.46,31.54,1.53,9,2.74,18l-.48-3.59q1.71,12.76,2.77,25.61c.3,3.63,1.3,6.89,3.95,9.54a13.76,13.76,0,0,0,9.55,4c7.23-.33,13.61-5.94,13.5-13.5a457.07,457.07,0,0,1,3.57-64l-26.52,3.59q1.71,7.33,2.71,14.79l-.49-3.59a158.32,158.32,0,0,1,0,41.66l.48-3.59c-.18,1.28-.37,2.57-.57,3.85l24.67-3.22q-4-8.46-7.6-17.08l1.36,3.23a474.7,474.7,0,0,1-20.73-60.27l-26,7.18c5.1,13.33,10.24,26.67,16.27,39.62,5.57,12,12.44,23.11,19.08,34.48a173.83,173.83,0,0,1,10.1,19.56l-1.36-3.22a84.15,84.15,0,0,1,6,21.09l-.49-3.59a57.55,57.55,0,0,1,.06,15l.48-3.59c-.17,1.2-.38,2.39-.63,3.58h26l-9.39-35.28c-1.46-5.51-7.17-10.17-13-9.91a16.06,16.06,0,0,0-6.81,1.84c-2.69,1.42-5.63,5-6.2,8.07a48.07,48.07,0,0,0,.67,22.34,13.55,13.55,0,0,0,11.23,9.67,12.88,12.88,0,0,0,7-.92,14.54,14.54,0,0,0,6.46-5.53,30.92,30.92,0,0,0,3.51-7.19,25.43,25.43,0,0,0,1.31-5.29,69.91,69.91,0,0,0,.68-13.86c-.43-8.63-1-17.25-1.67-25.86s-1.46-17.29-2.35-25.92c-.94-9-1.83-18-3.57-26.91-1.82-9.2-4.94-18.43-10-26.38a13.6,13.6,0,0,0-16.86-5.53c-6.36,2.69-9.27,9.27-7.81,15.93.19.88.34,1.76.47,2.65l-.49-3.59a29.63,29.63,0,0,1,0,7l.48-3.59a29.5,29.5,0,0,1-1.05,4.72l22.57-6a30.85,30.85,0,0,1-4.52-4.69l2.11,2.73c-7.18-9.42-9.63-21.48-16.22-31.28a91.17,91.17,0,0,0-29.95-27.8c-25.49-14.83-56.13-17.51-85-15.46-16.61,1.18-33.72,4.13-48,13.29a13.77,13.77,0,0,0-6.68,11.66,13.47,13.47,0,0,0,6.68,11.65A70.17,70.17,0,0,0,204,96.16a70.37,70.37,0,0,0,13.18,2.53l-3.59-26.52c-14.7,4.68-30.39,4.66-45.15,9.12A68.59,68.59,0,0,0,146.66,92a81.71,81.71,0,0,0-9.52,8.19,90,90,0,0,0-19,30.6,99.18,99.18,0,0,0-5.71,21.57,180,180,0,0,0-2.13,27.72c0,8.45.52,16.89,1.13,25.32.65,8.91,1.51,18,3.78,26.63a61.94,61.94,0,0,0,13.44,25.65,13.53,13.53,0,0,0,9.55,3.95,14.11,14.11,0,0,0,9.55-3.95,20.22,20.22,0,0,0,5.45-10.22,29.41,29.41,0,0,1,1.23-5.58l-1.36,3.23a8.22,8.22,0,0,1,.72-1.26l-2.11,2.74a7.85,7.85,0,0,1,.79-.84l-2.73,2.12a6.77,6.77,0,0,1,1.39-.84l-3.23,1.36a9.89,9.89,0,0,1,2-.52l-3.58.48c4-.49,8.34.21,12.37.57q6.74.6,13.44,1.49l-3.59-.48a305,305,0,0,1,63.16,15.5v-26c-1.37.22-2.75.43-4.13.62l3.59-.49a124.13,124.13,0,0,1-32.28,0l3.59.48a123.75,123.75,0,0,1-31.15-8.47l3.22,1.37c-1-.41-1.92-.83-2.87-1.26l6.69,11.66a4.3,4.3,0,0,1,0-.95l-.48,3.59a2.78,2.78,0,0,1,.17-.56l-1.37,3.22a4.44,4.44,0,0,1,.46-.75L175,250.54a5.64,5.64,0,0,1,.66-.63L172.94,252a7.44,7.44,0,0,1,1.46-.81l-3.23,1.36a13.1,13.1,0,0,1,2.82-.71l-3.59.49c3.89-.43,8,.07,11.93.33q6.43.45,12.84,1.3l-3.59-.48a200.07,200.07,0,0,1,42.55,10.61v-26c-.61.11-1.22.21-1.83.29l3.59-.48a32.4,32.4,0,0,1-8.29-.06l3.59.49a34.15,34.15,0,0,1-8-2.2l3.23,1.36a33.16,33.16,0,0,1-7.16-4.19l2.73,2.11c-.36-.28-.71-.58-1.07-.88l-9.54,23.05a571.15,571.15,0,0,1,71.18.6L279,231.64a79.33,79.33,0,0,0-16.44,5.8,77.68,77.68,0,0,0-14.61,9.39l-2.11,2.73-1.37,3.22a13.41,13.41,0,0,0,.68,8.79,13.56,13.56,0,0,0,12.34,8.3l36.13.43-9.55-23.05a54.42,54.42,0,0,1-5,4.38l2.74-2.11A55,55,0,0,1,270,256.45l3.23-1.36a54.67,54.67,0,0,1-13.44,3.73l3.59-.48a78.25,78.25,0,0,1-20.51-.31l3.59.48c-7.24-1-14.38-2.55-21.56-3.95s-14.19-2.63-21.33-3.72c-15.46-2.35-31-4.14-46.62-5.18q-6.25-.42-12.52-.68c-4-.16-8-.08-11.9-.54l3.59.49a19.51,19.51,0,0,1-4.38-1.09L135,245.2a15.27,15.27,0,0,1-3.2-1.86l2.73,2.11a19.2,19.2,0,0,1-3.16-3.21l2.11,2.73a35.49,35.49,0,0,1-4.34-7.81l1.36,3.23a182.65,182.65,0,0,1-12-45.31l.49,3.59a96.17,96.17,0,0,1-.43-25.08l-.49,3.59c1.36-9.92,5-19.32,8.29-28.73s6.27-19,10.14-28.19l-1.36,3.23a90.91,90.91,0,0,1,11.44-19.75l-2.11,2.74a100.72,100.72,0,0,1,18-17.93l-2.74,2.11a124.51,124.51,0,0,1,27.68-16L184.18,76a161.5,161.5,0,0,1,40.89-10.66l-3.59.48c20.73-2.74,41.71-2.39,62.54-1.33l3.59-.48a10.17,10.17,0,0,0,4.59-2.41,12.85,12.85,0,0,0,4.84-7,16.07,16.07,0,0,0,0-7.17,13.58,13.58,0,0,0-6.2-8.07c-23-12.28-49.95-14.22-75.16-8.36-24,5.57-45.56,18.78-63.87,35a222.69,222.69,0,0,0-26.14,27.74,10.22,10.22,0,0,0-2.79,4.34,10.25,10.25,0,0,0-1.16,5.21,13.74,13.74,0,0,0,4,9.54c2.58,2.36,6,4.12,9.55,4l3.59-.49a13.52,13.52,0,0,0,6-3.47C157.7,102.08,170.43,91,183.72,80.75L181,82.86A129.46,129.46,0,0,1,209.18,66L206,67.31a128.12,128.12,0,0,1,32.39-8.72l-3.59.48a130.86,130.86,0,0,1,34.13-.23l-3.59-.48a89.43,89.43,0,0,1,22.48,6.35l-3.23-1.36c9.51,4.05,18.6,9.07,27.77,13.82,8.55,4.42,17.2,8.7,25.51,13.56a124.2,124.2,0,0,1,12.8,8.52l-2.74-2.11a71.85,71.85,0,0,1,12.87,12.68l-2.11-2.74c6.92,9.11,11.34,19.94,15.78,30.4l-1.37-3.23a130.27,130.27,0,0,1,9.34,33.1l-.48-3.58c1.55,11.66,1.73,23.44,1.63,35.19-.1,11.94-.22,23.89-.86,35.82-.37,6.83-.95,13.65-1.86,20.44l.48-3.59c-.66,4.83-1.49,9.62-2.54,14.38L398.59,258c-9.38-7.22-21-11.34-32.45-14-10.89-2.5-22-3.81-32.91-6.21a104.38,104.38,0,0,1-17.72-5.39l3.23,1.36q-3-1.27-5.95-2.83l-10.4,24.68q27,9,54.6,15.83A13.71,13.71,0,0,0,370.12,268c3.19-3.18,5.09-8.71,3.47-13.13q-9.42-25.71-19.95-51a10.17,10.17,0,0,0-2.41-4.59,10.32,10.32,0,0,0-3.79-3.48A13.5,13.5,0,0,0,327.61,211q6.24,27.58,10.76,55.5l22.56-13.14-41.42-47.14a45,45,0,0,0-6.4-6.24,20.81,20.81,0,0,0-4-2.67,26.31,26.31,0,0,0-9.36-2.49c-4.11-.45-8.24,2.26-10.6,5.32a13.51,13.51,0,0,0-2.42,11.77q1.75,7.69,2.81,15.52l-.48-3.59a170.35,170.35,0,0,1,1.4,26.42L317,246.66q-5.42-25.09-8.86-50.57l.48,3.59q-2.16-16.12-3.52-32.33c-.3-3.47-1.27-7.08-4-9.54a13.91,13.91,0,0,0-7.75-3.72,13,13,0,0,0-8.61,1.6c-2.79,1.8-5.62,4.67-6.2,8.07-3.7,21.58-7.4,43.16-12.08,64.55l24.67-3.23q-1.84-3.95-3.54-8l1.36,3.22A221.84,221.84,0,0,1,275.4,175.1c-.6-3.17-3.52-6.5-6.21-8.07a13.5,13.5,0,0,0-18.47,4.84,15.18,15.18,0,0,0-1.36,10.41Z" transform="translate(-9.3 -11.43)"/><path class="cls-3" d="M102.36,143.47a96.94,96.94,0,0,0-12.89,53.39c.59,10,2.71,19.79,5,29.48q3.23,13.54,7,26.95c2.87,10.13,6.55,20.37,14.23,27.91a14,14,0,0,0,9.54,3.95,13.76,13.76,0,0,0,9.55-3.95,13.59,13.59,0,0,0,3.95-9.55,14,14,0,0,0-3.95-9.54,28.93,28.93,0,0,1-2.4-2.67l2.11,2.73a37.74,37.74,0,0,1-4.71-8.29l1.36,3.22a111.61,111.61,0,0,1-4.11-12.64q-2.06-7.36-4-14.77c-2.52-9.86-5.12-19.8-6.5-29.9l.48,3.59a85.71,85.71,0,0,1-.06-22.23l-.49,3.59a85.52,85.52,0,0,1,5.81-21.48L121,166.49a83.73,83.73,0,0,1,4.67-9.39A14.1,14.1,0,0,0,127,146.69a13.79,13.79,0,0,0-6.21-8.06c-3.13-1.66-6.93-2.49-10.4-1.37a14.05,14.05,0,0,0-8.07,6.21Z" transform="translate(-9.3 -11.43)"/><path class="cls-3" d="M240,57.69a176.4,176.4,0,0,1,43.14.22l-3.58-.48A140.62,140.62,0,0,1,315.3,67l-3.22-1.36a120.8,120.8,0,0,1,26.36,15.39L335.7,79a109.83,109.83,0,0,1,19.4,19.26L353,95.49a97.52,97.52,0,0,1,11.23,18.36c1.36,2.9,5.1,5.39,8.07,6.2a13.78,13.78,0,0,0,10.4-1.36,13.6,13.6,0,0,0,6.21-8.06l.48-3.59a13.5,13.5,0,0,0-1.84-6.82C378.43,80.73,363,64.6,345.13,52.79a136.64,136.64,0,0,0-30-14.63,159.18,159.18,0,0,0-36.51-7.79,177.55,177.55,0,0,0-38.63.32,10.21,10.21,0,0,0-5.2,1.16,10.22,10.22,0,0,0-4.34,2.79,13.48,13.48,0,0,0,0,19.09c2.46,2.27,6.06,4.35,9.54,4Z" transform="translate(-9.3 -11.43)"/><path class="cls-3" d="M354.14,106.4q2.52,1.66,4.9,3.5l-2.73-2.11a85.81,85.81,0,0,1,14.94,15l-2.11-2.73a105,105,0,0,1,13.34,23.09L381.12,140a133.47,133.47,0,0,1,9.08,33.82l-.48-3.58c2.23,16.72,1.65,33.71-.05,50.46-.5,5-1.11,10-1.78,14.91l.49-3.59c-1.56,11.57-3.43,23.09-5.14,34.64A10.26,10.26,0,0,0,383,272a10.09,10.09,0,0,0,1.6,5,13.8,13.8,0,0,0,8.07,6.21c3.46.78,7.34.61,10.41-1.36,2.74-1.78,5.7-4.69,6.2-8.07,4.33-29.32,10-58.88,8.72-88.65a163.56,163.56,0,0,0-5.9-38.34,127.8,127.8,0,0,0-14.6-33.14,101.57,101.57,0,0,0-29.73-30.59,13.5,13.5,0,0,0-18.47,4.84c-1.66,3.14-2.49,6.93-1.36,10.41a14.81,14.81,0,0,0,6.2,8.06Z" transform="translate(-9.3 -11.43)"/><path class="cls-3" d="M332.72,234.85a14,14,0,0,0,9.55-3.95,13.52,13.52,0,0,0,0-19.1,13.51,13.51,0,0,0-19.09,0,13.5,13.5,0,0,0,0,19.1,14,14,0,0,0,9.54,3.95Z" transform="translate(-9.3 -11.43)"/></g><g id="Layer_6" data-name="Layer 6"><path class="cls-4" d="M131,103.5a21.51,21.51,0,0,0-2,5.13,20.12,20.12,0,0,0-.55,5.58,23.68,23.68,0,0,0,3.17,10.67,25.74,25.74,0,0,0,7.8,8,13.88,13.88,0,0,0,2.25,1.2,30.87,30.87,0,0,0,5.73,2.14,38.58,38.58,0,0,0,8.9,1,36.46,36.46,0,0,0,8.8-1,18.53,18.53,0,0,0,6.47-3.33,16.58,16.58,0,0,0,4.79-5.57,36.5,36.5,0,0,0,3-8.6,51.51,51.51,0,0,0,.12-20.84L156.94,111c7,7.27,15.92,14.2,26.65,13.21a27.4,27.4,0,0,0,5.52-.91,23.86,23.86,0,0,0,5.07-2.22,23.32,23.32,0,0,0,7.36-7.3,21.16,21.16,0,0,0,3.15-10.19c.34-3.77-.87-7-2.36-10.31l-2.11-2.73a10.15,10.15,0,0,0-4.34-2.8,13,13,0,0,0-8.79-.68,16,16,0,0,0-6,3.48,10,10,0,0,0-2.79,4.34,10.11,10.11,0,0,0-1.16,5.2,21.94,21.94,0,0,1,0,5.31l.49-3.59a22.89,22.89,0,0,1-1.47,5.51l1.36-3.23a22.84,22.84,0,0,1-2.85,4.93l2.11-2.73a22.15,22.15,0,0,1-3.47,3.51l2.73-2.11a21.87,21.87,0,0,1-4.67,2.73l3.23-1.36a22.74,22.74,0,0,1-5.6,1.5l3.59-.48a22.85,22.85,0,0,1-5.42,0l3.59.48a21.84,21.84,0,0,1-4.14-1c-3.2-1.09-7.55-.31-10.4,1.36a13.72,13.72,0,0,0-6.2,8.06c-.79,3.46-.62,7.34,1.36,10.41a14.87,14.87,0,0,0,8.06,6.2c5.8,2,11.94,1.88,17.88.78,5.77-1.07,10.93-4.07,15.38-7.77s7.37-8.81,9.5-14.16a23.75,23.75,0,0,0,1.46-5.5,32.47,32.47,0,0,0,.47-8.9L179,106.88l.13.31L177.79,104a6.66,6.66,0,0,1,.4,1.58l-.48-3.59a8,8,0,0,1,0,1.62l.48-3.59a8.89,8.89,0,0,1-.51,1.9L179,98.66a9.75,9.75,0,0,1-1.19,2L179.94,98a10.17,10.17,0,0,1-1.43,1.43l2.73-2.11a9.36,9.36,0,0,1-1.78,1L182.68,97a11.28,11.28,0,0,1-2.68.71l3.59-.48a13.79,13.79,0,0,1-3.21,0l3.59.48a17.19,17.19,0,0,1-3.52-1L183.67,98a21.3,21.3,0,0,1-4.36-2.58L182,97.53a56.15,56.15,0,0,1-6-5.64,13.14,13.14,0,0,0-7.76-3.72,12.94,12.94,0,0,0-8.6,1.61,16,16,0,0,0-4.85,4.84c-2,3.1-2,6.94-1.36,10.4.12.6.22,1.2.31,1.81l-.49-3.59a35.4,35.4,0,0,1,0,9.14l.49-3.59a31.68,31.68,0,0,1-2,7.74l1.36-3.22a9.84,9.84,0,0,1-.72,1.31l2.11-2.74a5.84,5.84,0,0,1-.75.82l2.73-2.11a6,6,0,0,1-1,.6l3.23-1.36a9.65,9.65,0,0,1-2.25.57l3.59-.48a30.69,30.69,0,0,1-7.78.06l3.59.48a17.61,17.61,0,0,1-3.91-1l3.22,1.36a13.21,13.21,0,0,1-2.66-1.51l2.73,2.11a11.91,11.91,0,0,1-2-2l2.11,2.74A11.69,11.69,0,0,1,154.3,110l1.36,3.22A9.52,9.52,0,0,1,155,111l.48,3.59a9.46,9.46,0,0,1,0-2l-.48,3.59a8.94,8.94,0,0,1,.41-1.62L154,117.75c.09-.22.18-.42.29-.63a14.42,14.42,0,0,0,1.36-10.4,13.76,13.76,0,0,0-6.21-8.07c-3.13-1.65-6.92-2.48-10.4-1.36-3.2,1-6.53,3.07-8.07,6.21Z" transform="translate(-9.3 -11.43)"/><path class="cls-4" d="M275,76.9c-.65,6.4,2.43,12.51,6.41,17.26a24.38,24.38,0,0,0,6,4.94,27.3,27.3,0,0,0,7.89,3.21,38.39,38.39,0,0,0,8.42,1c3.8,0,7.8-.45,11.1-2.45C320,97.7,322,91.48,324.4,86.21L299.24,79.4a50.39,50.39,0,0,0,.95,8.49,22.63,22.63,0,0,0,5.19,10c4.42,5.25,11.29,7,17.83,7.42,5.82.4,12.12,0,17.2-3.12a20,20,0,0,0,8.52-10.88c1.56-4.75.68-9.45-1.48-13.83a13.49,13.49,0,0,0-8.06-6.2A14.25,14.25,0,0,0,329,72.63l-1.31.75a13.5,13.5,0,0,0-4.84,18.47c1.86,2.88,4.63,5.42,8.07,6.2a14.14,14.14,0,0,0,10.4-1.36l1.31-.75L324.14,91.1l.15.3-1.36-3.23a5.67,5.67,0,0,1,.25.92l-.48-3.59a5,5,0,0,1,0,1l.48-3.59a6.11,6.11,0,0,1-.31,1.26l1.37-3.23a7.68,7.68,0,0,1-.83,1.45l2.11-2.73a7.94,7.94,0,0,1-1.21,1.18l2.73-2.11a9.25,9.25,0,0,1-1.31.72L329,78a12,12,0,0,1-2.42.66l3.59-.48a34.14,34.14,0,0,1-8.45-.07l3.59.49a15.36,15.36,0,0,1-3.6-.92l3.22,1.36A10.31,10.31,0,0,1,323,78l2.73,2.11a8.81,8.81,0,0,1-1.29-1.3l2.11,2.73a9.9,9.9,0,0,1-1.08-1.9l1.36,3.22A15.12,15.12,0,0,1,326,79.6l.49,3.59c-.17-1.26-.23-2.53-.28-3.79a13.85,13.85,0,0,0-2.9-8.18,12.84,12.84,0,0,0-7-4.84,16.11,16.11,0,0,0-7.18,0c-2.92.66-6.78,3.42-8.07,6.2l-2.31,5a28.94,28.94,0,0,1-2.23,4.58l2.11-2.73-.24.24,2.74-2.11-.35.2L304,76.4a3.09,3.09,0,0,1-.79.22l3.59-.49a25.78,25.78,0,0,1-6.33,0l3.59.48a19.39,19.39,0,0,1-4.45-1.2l3.22,1.36a15.51,15.51,0,0,1-3.1-1.81L302.49,77a14.16,14.16,0,0,1-2.12-2.12l2.11,2.74a13.52,13.52,0,0,1-1.54-2.55l1.36,3.23a11.56,11.56,0,0,1-.79-2.83L302,79.1a10.11,10.11,0,0,1,0-2.2c.32-3.24-1.75-7.34-4-9.55a13.51,13.51,0,0,0-19.09,0l-2.11,2.73A13.4,13.4,0,0,0,275,76.9Z" transform="translate(-9.3 -11.43)"/><path class="cls-4" d="M311.49,105.73a14,14,0,0,0,9.54-4,13.5,13.5,0,0,0,0-19.1,13.51,13.51,0,0,0-19.09,0,13.52,13.52,0,0,0,0,19.1,14,14,0,0,0,9.55,4Z" transform="translate(-9.3 -11.43)"/></g><g id="Layer_4" data-name="Layer 4"><path class="cls-5" d="M127.29,284.53c15.2,23.4,30.55,46.89,49.16,67.77,5.13,5.74,10.5,11.26,16.16,16.47,3.47,3.2,9.35,3.69,12.73,0a9.15,9.15,0,0,0,0-12.72c-19-18.87-36.92-38.74-54.62-58.79q-3.69-4.17-7.36-8.35c-2.43-2.77-5-5.47-7.28-8.37l1.41,1.82a13.08,13.08,0,0,1-1.62-2.69l.91,2.15a8.73,8.73,0,0,1-.43-1.49l-16.45,6.93L154.82,341c11.56,17.77,23,35.63,34.93,53.17,3.59,5.28,7.32,10.44,11.27,15.46,3.53,4.48,7.42,8.86,12.56,11.53a9.53,9.53,0,0,0,6.94.91,9.17,9.17,0,0,0,5.37-4.14c2.19-4.14,1.23-10-3.22-12.31a22.52,22.52,0,0,1-3.12-2l1.82,1.4c-3.38-2.65-6-6.07-8.64-9.45l1.41,1.82c-5.48-7.13-10.43-14.64-15.39-22.13q-7.74-11.67-15.39-23.42-15.33-23.47-30.59-47l-17.33-26.63a9.09,9.09,0,0,0-11.24-3.69c-4.29,1.82-6.1,6.16-5.21,10.62s3.88,7.69,6.7,10.9l7,8q7.11,8.08,14.26,16.12c9.44,10.58,19,21.08,28.76,31.36q8.33,8.76,16.88,17.29l12.73-12.72a268.14,268.14,0,0,1-30-33.24l1.41,1.82c-9.49-12.3-18.2-25.18-26.71-38.17q-3.6-5.49-7.18-11a9.49,9.49,0,0,0-5.37-4.14,9.23,9.23,0,0,0-6.94.91c-3.94,2.54-6,8.09-3.23,12.31Z" transform="translate(-9.3 -11.43)"/><path class="cls-5" d="M205,410.85l30.65,40,8.8,11.49c1.42,1.85,3,3.58,5.38,4.13a9.07,9.07,0,0,0,6.93-.91c19.81-12.65,31.28-33.34,43.58-52.64,3.34-5.22,6.79-10.38,10.58-15.29l-1.41,1.82c6.05-7.79,13.15-14.58,20.29-21.36,7.42-7.05,14.58-14.33,21.4-22,14-15.71,26.77-32.51,39.26-49.44,3.35-4.54,6.71-9.08,10-13.66,3.59-5,6.81-10.27,8.43-16.25a9.24,9.24,0,0,0-.9-6.94,10.13,10.13,0,0,0-5.38-4.13A172.79,172.79,0,0,0,355.19,256a207.26,207.26,0,0,0-48.61,2.77,234.84,234.84,0,0,0-44.77,12.42,319.61,319.61,0,0,0-42.94,20.33,420.15,420.15,0,0,0-38.48,24.81l-4.64,3.38c-2.64,1.94-4.46,4.34-4.46,7.77,0,3,1.67,6.4,4.46,7.77a21.16,21.16,0,0,1,3.37,2.07l-1.82-1.4a22,22,0,0,1,3.86,3.86l-1.41-1.83a31.45,31.45,0,0,1,3.92,6.88l-.91-2.15c2.56,6.13,3.74,12.73,4.9,19.24a145.79,145.79,0,0,0,5.26,21.19,96.93,96.93,0,0,0,9.94,21.35,69.77,69.77,0,0,0,17,18.29c6.55,4.91,14.27,8,20.77,13l-1.83-1.4a32.1,32.1,0,0,1,5.59,5.52L243,438a41,41,0,0,0,3.68,4.7,13.14,13.14,0,0,0,8.65,4,12.25,12.25,0,0,0,8.8-3.43,37,37,0,0,0,3.43-3.86l13.8-16.22q14-16.4,27.85-32.85t27.64-33c8.83-10.63,17.69-21.24,26.2-32.12,9.62-12.31,18.81-25,26.27-38.71a9,9,0,0,0,.46-8,9.2,9.2,0,0,0-5.84-5.22c-26.28-9.46-54.93-6.61-81.85-1.84-24.22,4.29-49.26,9.32-70.82,21.72a105.75,105.75,0,0,0-17.52,12.73c-5,4.48-9.75,9.32-15.07,13.47l1.82-1.41a51.93,51.93,0,0,1-7.86,5.12c-3.74,1.93-7.3,3.77-9.64,7.48s-2.69,8.15-2.17,12.37a52.12,52.12,0,0,0,2.67,11.7,112.61,112.61,0,0,0,9.57,19.07c3.15,5.25,6.32,10.49,9.71,15.6a159.21,159.21,0,0,0,12,16A90.4,90.4,0,0,0,229,418.47c5.46,4.1,11.9,7.9,18.74,8.89a25.53,25.53,0,0,0,12.6-.92A36,36,0,0,0,271,420.18c5.92-4.83,10.4-11.46,15-17.49,4.89-6.43,9.67-12.95,14.61-19.35l-1.41,1.82c16.18-20.94,35.33-39.31,51.76-60,4.46-5.63,8.78-11.38,12.71-17.39q2.64-4,5.05-8.2a17.53,17.53,0,0,0,2.76-7.7c.26-4.24-2.49-8-6.05-10-13.28-7.42-29.41-7.25-43.9-4.29-13.86,2.84-27,8.29-40.76,11.71-12.94,3.22-26.09,5.51-39,8.88a160.89,160.89,0,0,0-18.64,6c-6.48,2.56-13,5.4-18.82,9.34s-11,8.58-14.5,14.58a29.36,29.36,0,0,0-3.09,22.54c2,7.39,6.58,13.58,11.34,19.41q6.65,8.16,14.06,15.65A166.33,166.33,0,0,0,227,399.3a36.36,36.36,0,0,0,11.48,6.61c4.58,1.49,9.41,1.26,14.08.41a56.11,56.11,0,0,0,9.73-3L251.23,397a3.85,3.85,0,0,1,.25.88l-.32-2.39a3.93,3.93,0,0,1,0,.84l.32-2.39a2.72,2.72,0,0,1-.15.54l.91-2.15a5.38,5.38,0,0,1-.58,1l1.41-1.82a8.71,8.71,0,0,1-1.4,1.38l1.83-1.41a16,16,0,0,1-3.34,1.9l2.15-.91a21.48,21.48,0,0,0-4.84,2.42,18.88,18.88,0,0,0-5,5.06,12.36,12.36,0,0,0-2,6.59,12.76,12.76,0,0,0,3.32,8.18c2,2.42,5.91,3.1,8.76,2.31a9.18,9.18,0,0,0,6.29-6.28c.37-1.18.79-2.33,1.26-3.47l-.9,2.15a47.34,47.34,0,0,1,6.1-10.15l-1.4,1.82c5.35-6.86,11.95-12.7,18.49-18.39,7-6.12,14.29-12,21.41-18,13.73-11.61,26.83-24.06,36.76-39.17a94.32,94.32,0,0,0,12.37-27.12,9.09,9.09,0,0,0-11.07-11.07c-11.79,3.29-23.53,6.76-34.62,12a81.74,81.74,0,0,0-14.62,8.84A163.72,163.72,0,0,0,279,320.07a172.3,172.3,0,0,1-13.44,12l1.83-1.41a56.87,56.87,0,0,1-12.2,7.29l2.15-.91a78.28,78.28,0,0,1-19.72,4.9l2.39-.32c-9.26,1.23-18.78,2.24-28.11,1.06l2.39.32a43.57,43.57,0,0,1-10.86-2.83l2.15.91a34.63,34.63,0,0,1-5.65-3.06l1.82,14.13a19.88,19.88,0,0,1,1.95-1.71l-1.83,1.41a23.5,23.5,0,0,1,4.76-2.69l-2.15.91a65.32,65.32,0,0,1,12.26-3.24,72.08,72.08,0,0,0,12.71-3.57c9-3.61,17.17-8.65,25.52-13.54a120.24,120.24,0,0,1,13.81-7.14l-2.15.91c6-2.48,12.22-3.87,18.51-5.21A93.89,93.89,0,0,0,305.62,312a9,9,0,0,0,4.14-5.38,9.35,9.35,0,0,0-.45-5.86,9,9,0,0,0-10.62-5.21L232.11,315l-18.68,5.47a9,9,0,0,0,2.39,17.68c10.38.44,20.8,1.19,31.19,1.13,9-.05,18.37-.86,26.73-4.33a41.12,41.12,0,0,0,14.74-9.79c2.63-2.83,3.62-7.49,1.41-10.91a9.29,9.29,0,0,0-10.16-4.13A113.86,113.86,0,0,0,239,329.77c-3.66,2.79-7.12,5.82-10.76,8.64l1.82-1.41a37.12,37.12,0,0,1-7.74,4.76l2.15-.9a19.46,19.46,0,0,1-4.72,1.3l2.39-.32a16.48,16.48,0,0,1-3.44,0c-3.07-.31-6.29,1.92-7.77,4.45a9.23,9.23,0,0,0,0,9.09,215.3,215.3,0,0,0,20.25,32.48l12.31-12.31q-5.12-3.22-9.91-6.92l1.82,1.41a129.75,129.75,0,0,1-11.78-10.33l-10.9,14.14A296.27,296.27,0,0,1,249,394.45a9,9,0,0,0,6.93.91,9.66,9.66,0,0,0,5.38-4.14q4.85-7.71,10.41-14.94l-1.4,1.82a193.72,193.72,0,0,1,34.84-34.83l-1.82,1.41a191.14,191.14,0,0,1,30.8-19.37,8.93,8.93,0,0,0,4.46-7.78c0-3.36-1.79-5.92-4.46-7.77-9-6.24-20.47-1.94-28.36,4-3.94,3-7.59,6.26-11.38,9.41q-5.19,4.33-10.54,8.46l1.82-1.41a371.79,371.79,0,0,1-44.45,29.49q-6.57,3.71-13.29,7.14l13.22,5.38a27.3,27.3,0,0,1-1.79-6.64l.32,2.39a28.79,28.79,0,0,1,0-6.88l-.32,2.39a28.28,28.28,0,0,1,1.31-5.43l-11.07,6.29a21.3,21.3,0,0,1,2.32.82l-2.15-.91a21,21,0,0,1,3.89,2.27l-1.83-1.41A21.62,21.62,0,0,1,234,367c3.32,3.35,9.45,3.57,12.73,0a9.17,9.17,0,0,0,0-12.73,28.74,28.74,0,0,0-12.32-7.3,9.1,9.1,0,0,0-6.94.91,10,10,0,0,0-4.14,5.37,34.43,34.43,0,0,0,.49,23.74,8.93,8.93,0,0,0,2.32,4,6.68,6.68,0,0,0,2.89,1.86,9,9,0,0,0,8-.45,381.74,381.74,0,0,0,63.65-41.23c5.32-4.23,10.32-8.87,15.69-13l-1.82,1.4a37.2,37.2,0,0,1,7.91-4.76l-2.15.91a18.79,18.79,0,0,1,4.28-1.2l-2.39.32a13.19,13.19,0,0,1,3.14,0l-2.39-.32a10.64,10.64,0,0,1,2.35.65l-2.15-.91a11.72,11.72,0,0,1,1.92,1.09V309.76a201.39,201.39,0,0,0-35.81,23.29,192.14,192.14,0,0,0-28.9,28.83,208.65,208.65,0,0,0-14.58,20.26l12.31-3.23a296.91,296.91,0,0,0-36.3-20.58,9.46,9.46,0,0,0-6.93-.9,9.3,9.3,0,0,0-4.68,3.22,9,9,0,0,0,.7,11.82,137.87,137.87,0,0,0,23.52,18.65,9.06,9.06,0,0,0,10.9-1.41,10.61,10.61,0,0,0,2.32-4c.62-1.92.35-5.26-.91-6.93a215.4,215.4,0,0,1-20.25-32.49l-7.77,13.55c6.09.59,12.32-1.79,17.33-5.09,4.8-3.16,9-7.11,13.54-10.62l-1.82,1.41a108.69,108.69,0,0,1,23.93-13.94l-2.15.91a108.46,108.46,0,0,1,15-5l-8.75-15a31.69,31.69,0,0,1-3.73,3.41l1.82-1.41a33.85,33.85,0,0,1-7,4.07l2.15-.91a49.91,49.91,0,0,1-12.66,3.28l2.39-.32a114,114,0,0,1-18.84.61c-8-.27-16-.67-24-1l2.39,17.68,66.58-19.5,18.69-5.48-6.94-16.45c-.54.26-1.08.5-1.63.73l2.15-.91c-9.94,4.16-20.86,4.86-31,8.31-9.92,3.38-18.79,8.87-27.76,14.17a125.64,125.64,0,0,1-14.64,7.65l2.15-.91c-5.77,2.4-11.72,3.54-17.8,4.84-7,1.49-13.82,4-19,9.14a8.81,8.81,0,0,0-2.48,7.56,9.09,9.09,0,0,0,4.3,6.58c13.85,9.28,31.59,8.25,47.37,6.29a134.39,134.39,0,0,0,14.25-2.36,69.69,69.69,0,0,0,13.47-4.73c7.15-3.34,13.42-8.48,19.21-13.78,6.09-5.56,11.8-11.56,18.34-16.62l-1.82,1.41a86.33,86.33,0,0,1,19-10.78l-2.15.91c9.11-3.82,18.63-6.52,28.13-9.17l-11.07-11.08a80.17,80.17,0,0,1-3.48,10.13l.91-2.15a100.56,100.56,0,0,1-13,21.92l1.4-1.82c-9,11.65-19.95,21.56-31.18,31-11.65,9.82-24,19.17-34.41,30.3-6.25,6.65-11.54,14.15-14.29,22.93l15-4-.2-.24,1.41,1.82a2.58,2.58,0,0,1-.29-.51l.91,2.15a2,2,0,0,1-.16-.53l.32,2.4a3.22,3.22,0,0,1,0-.82l-.32,2.4a3.93,3.93,0,0,1,.23-.83l-.91,2.15a6.88,6.88,0,0,1,.82-1.34l-1.41,1.83a10.74,10.74,0,0,1,1.49-1.45l-1.82,1.41a11.17,11.17,0,0,1,2.39-1.38l-2.15.9c3.13-1.29,6.25-2.68,8.6-5.23,3-3.24,4.94-8.17,3.22-12.52-.86-2.16-2-4.24-4.14-5.38s-4.7-1.75-6.93-.91a51.73,51.73,0,0,1-11.09,3.2l2.39-.32a21.57,21.57,0,0,1-4.95,0l2.39.32a18.17,18.17,0,0,1-4.52-1.25l2.15.91a28.44,28.44,0,0,1-5.65-3.46l1.82,1.41a163.09,163.09,0,0,1-16.35-15.08,198.29,198.29,0,0,1-14.78-16.81l1.41,1.82a46.61,46.61,0,0,1-6.12-10l.9,2.15a25.15,25.15,0,0,1-1.63-5.91l.32,2.4a20.56,20.56,0,0,1,0-5.08l-.32,2.4a21.16,21.16,0,0,1,1.45-5.17l-.9,2.15a26.24,26.24,0,0,1,3.13-5.28l-1.41,1.82a39.24,39.24,0,0,1,7-6.85l-1.82,1.41a75.48,75.48,0,0,1,16.74-9.24l-2.15.9c12.92-5.4,26.64-8.44,40.29-11.37,6.88-1.47,13.77-2.93,20.59-4.65,7.17-1.81,14.19-4.07,21.22-6.32,8-2.56,16.05-5,24.37-6.14l-2.39.32a64.26,64.26,0,0,1,16.74-.18l-2.39-.32a45.55,45.55,0,0,1,11.47,3.06l-2.15-.91a20,20,0,0,1,4,2.07l-1.83-1.41.26.25-1.4-1.82a1.62,1.62,0,0,1,.35.61l-.91-2.15.07.38-.32-2.39,0,.38.33-2.39a3.26,3.26,0,0,1-.23.75l.91-2.15a97.56,97.56,0,0,1-7.3,12c-2.62,3.91-5.39,7.72-8.26,11.44l1.41-1.82c-8.59,11.12-18.09,21.49-27.53,31.89-10.16,11.19-20,22.55-29.21,34.56-5.34,7-10.54,14.11-15.92,21.08l1.41-1.82c-3.5,4.52-7,9.11-11.56,12.64l1.82-1.4a25,25,0,0,1-5.2,3.07l2.15-.91A19.07,19.07,0,0,1,252,410l2.39-.32a18.26,18.26,0,0,1-4.18,0l2.39.32a24.19,24.19,0,0,1-6.29-1.79l2.15.91a53.51,53.51,0,0,1-10.94-6.68l1.83,1.41a88.61,88.61,0,0,1-15.57-15.93l1.41,1.82a208.91,208.91,0,0,1-12.57-18.64c-4.18-6.81-8.52-13.62-11.64-21l.91,2.15a47.18,47.18,0,0,1-3.32-11.75l.32,2.39a19.15,19.15,0,0,1-.12-4.9l-.33,2.39a10.38,10.38,0,0,1,.52-1.89l-.91,2.15a7.8,7.8,0,0,1,.78-1.34l-1.41,1.82a9,9,0,0,1,1.36-1.33l-1.82,1.41a32.08,32.08,0,0,1,4.46-2.44A43.85,43.85,0,0,0,206,336.1a91.09,91.09,0,0,0,9.72-7.57c5.33-4.69,10.27-9.8,15.88-14.17l-1.82,1.41a104.39,104.39,0,0,1,23.19-13.28l-2.15.91c17-7.14,35.3-10.83,53.39-14.14,5.59-1,11.2-1.95,16.83-2.71l-2.39.32c14.17-1.89,28.56-2.7,42.77-.81l-2.39-.32a99.33,99.33,0,0,1,20.18,4.88l-5.38-13.22a260.12,260.12,0,0,1-23.17,34.71l1.41-1.82c-12.29,15.89-25.31,31.25-38.19,46.67q-19.92,23.84-40.07,47.48-5.68,6.71-11.38,13.39l-5.62,6.6c-1.76,2.06-3.42,4.5-5.5,6.24l1.82-1.4a5,5,0,0,1-1,.54l2.15-.91a3.15,3.15,0,0,1-.69.16l2.39-.33a2.74,2.74,0,0,1-.64,0l2.39.32a2.72,2.72,0,0,1-.62-.17l2.15.91a6.66,6.66,0,0,1-1.14-.69l1.83,1.4a11.12,11.12,0,0,1-1.49-1.58l1.4,1.82a50.18,50.18,0,0,0-7.14-8.18,68,68,0,0,0-8.81-6.27c-5.22-3.14-10.7-5.83-15.55-9.54l1.82,1.41a57,57,0,0,1-10-10l1.41,1.82A76.4,76.4,0,0,1,212,383l.9,2.15a131.19,131.19,0,0,1-7.71-27.3c-1.6-8.91-3.25-18.05-7.85-26a30.41,30.41,0,0,0-12.46-12.14v15.54c18.4-13.53,37.68-26,58.12-36.19q8.69-4.35,17.62-8.13l-2.15.91a244.07,244.07,0,0,1,46.26-14.47c4.59-.93,9.22-1.7,13.86-2.33l-2.39.33a191.14,191.14,0,0,1,50.46-.21l-2.39-.33A162,162,0,0,1,397.83,283L391.55,272a29.61,29.61,0,0,1-1.27,3.68l.91-2.15a58.18,58.18,0,0,1-6.78,11.14q-3.92,5.37-7.86,10.72c-5.38,7.31-10.8,14.59-16.35,21.77l1.41-1.82c-13.17,17-27.11,33.41-42.7,48.28-7.51,7.16-15.14,14.21-21.56,22.39a259.18,259.18,0,0,0-15.88,23.12c-5.22,8.36-10.36,16.78-16.39,24.59l1.41-1.82A90.08,90.08,0,0,1,251,447.81l1.82-1.41c-1.65,1.28-3.36,2.49-5.12,3.61L260,453.24l-30.65-40-8.8-11.49c-1.49-1.94-2.92-3.45-5.38-4.13a9.19,9.19,0,0,0-6.94.9,9.09,9.09,0,0,0-4.13,5.38c-.5,2.19-.53,5.07.91,6.94Z" transform="translate(-9.3 -11.43)"/><path class="cls-6" d="M129.34,289.42c4.7,0,9.21-4.14,9-9a9.16,9.16,0,0,0-9-9c-4.71,0-9.22,4.14-9,9a9.15,9.15,0,0,0,9,9Z" transform="translate(-9.3 -11.43)"/><path class="cls-5" d="M138.51,278.88l-3.23-7.48.91,2.15a6.35,6.35,0,0,1-.43-1.47l.32,2.39v-.36l-.32,2.39.08-.35-.91,2.15.17-.32-1.4,1.83.21-.24L132.1,281a1.68,1.68,0,0,1,.53-.31l-2.15.91a2.86,2.86,0,0,1,.64-.16l-2.39.32c3.48-.42,7.06-.47,10.57-.66s7.28-.38,10.92-.53q10.67-.46,21.35-.69,21.62-.47,43.22.06a222.26,222.26,0,0,1,23.51,1.3l-2.39-.32a59.09,59.09,0,0,1,14.53,3.7l-2.15-.9a40.43,40.43,0,0,1,9.08,5.23l-1.82-1.41a32.82,32.82,0,0,1,5.44,5.42l-1.41-1.82c.62.82,1.2,1.66,1.75,2.54l12.31-12.31a164.86,164.86,0,0,0-27.41-11.3,171.09,171.09,0,0,0-29.1-6.11,167.05,167.05,0,0,0-57.22,2.76,163.56,163.56,0,0,0-31.44,10.58c-2.81,1.26-4.46,4.87-4.46,7.77s1.67,6.41,4.46,7.77a126.82,126.82,0,0,1,21.66,13.48l-1.82-1.41A127,127,0,0,1,171,327.57l-1.4-1.82c.5.65,1,1.31,1.49,2a9.8,9.8,0,0,0,5.38,4.14,9.21,9.21,0,0,0,6.93-.91c3.95-2.55,6-8.08,3.23-12.32l-23-35.59-10.17,13.23L208,306.37l15.41,2.85a9.72,9.72,0,0,0,5.86-.45,8.67,8.67,0,0,0,4.31-3.68,9.39,9.39,0,0,0-1.41-10.91,68.81,68.81,0,0,0-27.38-18.28l-2.4,17.67a63.48,63.48,0,0,1,13.36.28l-2.39-.32a63.58,63.58,0,0,1,15.89,4.29l-2.15-.91q2.26,1,4.44,2.08l6.94-16.45a199.77,199.77,0,0,0-27-7.26c-5.13-1-10.3-1.76-15.49-2.42a95.29,95.29,0,0,0-12.84-1.06c-6.16.08-12.2,1.72-16.71,6.12a9.16,9.16,0,0,0-1.41,10.91l16.51,28.59,10.16-13.22-1.07-.42,2.15.9a39.37,39.37,0,0,1-8.6-5l1.82,1.41a40.49,40.49,0,0,1-7-7.05l1.4,1.82a39.71,39.71,0,0,1-4-6.51l-7.77,13.54A13.52,13.52,0,0,0,180,296.37a15,15,0,0,0,1.49-12c-1.81-6.21-6.65-11-11.72-14.67a40.75,40.75,0,0,0-13.55-6.18,59.15,59.15,0,0,0-16.82-1.76A162.79,162.79,0,0,0,119,264.19a8.87,8.87,0,0,0-5.37,4.13,9,9,0,0,0-.91,6.94A59.19,59.19,0,0,0,128.36,300c3.44,3.21,9.36,3.67,12.72,0,3.2-3.49,3.68-9.3,0-12.73a51.52,51.52,0,0,1-5.59-6.13l1.4,1.82a51.31,51.31,0,0,1-6.27-10.74l.91,2.15c-.54-1.28-1-2.57-1.46-3.89l-6.29,11.07c2.58-.41,5.17-.82,7.76-1.17l-2.4.32a74.07,74.07,0,0,1,19.67-.49l-2.39-.32a41.23,41.23,0,0,1,10.16,2.76l-2.15-.9a32.6,32.6,0,0,1,7,4.08l-1.82-1.41a27.29,27.29,0,0,1,4.61,4.63l-1.41-1.82a17.57,17.57,0,0,1,1.77,2.9l-.91-2.15a10.23,10.23,0,0,1,.7,2.41L164,288a7.78,7.78,0,0,1,0,1.6l.33-2.4a6.72,6.72,0,0,1-.37,1.33l.91-2.15a6.22,6.22,0,0,1-.69,1.2l1.41-1.82a6.7,6.7,0,0,1-.95,1l1.82-1.41a6.59,6.59,0,0,1-.85.51l2.15-.91a5.29,5.29,0,0,1-.94.27l2.39-.32a3.76,3.76,0,0,1-.67,0,9.06,9.06,0,0,0-7.77,4.46,9.26,9.26,0,0,0,0,9.08A45.13,45.13,0,0,0,171,311.83a50.26,50.26,0,0,0,16,9.73,8.63,8.63,0,0,0,4.78,0,8.94,8.94,0,0,0,4.68-3.22,9,9,0,0,0,.7-10l-16.51-28.6-1.4,10.91a11.12,11.12,0,0,1,1.1-1l-1.82,1.41a12,12,0,0,1,2.17-1.25l-2.15.9a16.78,16.78,0,0,1,3.87-1L180,290a37.81,37.81,0,0,1,8,0c3.3.28,6.6.65,9.89,1.09l-2.39-.32a200.44,200.44,0,0,1,38.2,9.11,9.06,9.06,0,0,0,6.94-.91,9.29,9.29,0,0,0,3.68-4.3c1.65-3.92.32-9.18-3.68-11.24a70.91,70.91,0,0,0-38.24-7.88,9.46,9.46,0,0,0-6.36,2.64,9.3,9.3,0,0,0-2.48,5.17,8.66,8.66,0,0,0,1.07,5.74,10.27,10.27,0,0,0,5.38,4.13c.78.29,1.55.6,2.32.91l-2.15-.9A60.53,60.53,0,0,1,213.41,301l-1.82-1.41a60.85,60.85,0,0,1,7.87,7.35l8.76-15-54.57-10.11-15.41-2.85c-3.65-.68-7.1.17-9.46,3.22a9,9,0,0,0-.7,10l23,35.59,15.54-9.09a138.17,138.17,0,0,0-37.17-34.73,128.84,128.84,0,0,0-11.88-6.62v15.54c1-.45,2-.9,3.07-1.33l-2.15.91a154.61,154.61,0,0,1,39.38-10.67l-2.39.32a161.69,161.69,0,0,1,42.5,0l-2.39-.33a157.81,157.81,0,0,1,40.18,10.91l-2.15-.91q5.58,2.37,11,5.17c3.44,1.79,8.14,1.61,10.91-1.41a9.2,9.2,0,0,0,1.41-10.9c-5.78-9.38-15.29-15.56-25.67-18.79-11-3.45-23-3.52-34.42-3.82q-34.14-.89-68.3.65c-6.36.29-12.75.53-19.1,1.06-3.15.26-6,1-8.3,3.28a10.9,10.9,0,0,0-2.52,10.65,55.32,55.32,0,0,0,2.51,6L123,288c.83,1.93,3.46,3.61,5.38,4.14a9.23,9.23,0,0,0,6.94-.91,9.09,9.09,0,0,0,4.13-5.38l.33-2.39a9.08,9.08,0,0,0-1.23-4.55Z" transform="translate(-9.3 -11.43)"/><path class="cls-5" d="M299,276.53l-54.5,24.38-15.45,6.9c-1.93.87-3.6,3.43-4.13,5.38a9.15,9.15,0,0,0,.91,6.94,9,9,0,0,0,5.37,4.13,10.38,10.38,0,0,0,6.94-.9L292.65,299l15.44-6.9c1.93-.87,3.6-3.43,4.14-5.38a9.24,9.24,0,0,0-.91-6.94,9.06,9.06,0,0,0-5.38-4.13,10.36,10.36,0,0,0-6.93.9Z" transform="translate(-9.3 -11.43)"/><path class="cls-5" d="M187.63,305.13A44.69,44.69,0,0,0,192,312.7a56.74,56.74,0,0,0,7,8.23,9.4,9.4,0,0,0,6.37,2.64,9,9,0,0,0,9-9,9.24,9.24,0,0,0-2.64-6.37,46.05,46.05,0,0,1-4.6-5.07L208.5,305a44.88,44.88,0,0,1-5.32-8.91,6.86,6.86,0,0,0-2.32-2.52,6.76,6.76,0,0,0-3.06-1.61,9.14,9.14,0,0,0-6.94.91,9,9,0,0,0-4.13,5.37l-.33,2.4a9,9,0,0,0,1.23,4.54Z" transform="translate(-9.3 -11.43)"/><path class="cls-7" d="M254.75,467.48c11.68-11.42,23.36-22.91,33.27-35.93,5-6.57,9.61-13.42,14.55-20a212.52,212.52,0,0,1,16.35-19.12c5.75-6,11.59-12,17.13-18.25s10.72-12.5,15.83-18.95c10.2-12.9,19.82-26.23,29.43-39.57l15.32-21.24,7.74-10.73c2.1-2.91,5-6,5.89-9.55a5.13,5.13,0,0,0-3.38-6.3,27.22,27.22,0,0,0-5.07-1.16l-6.53-1.18c-8.49-1.52-17-3-25.53-4.2-16.93-2.43-34.06-4-51.17-3.15a194.79,194.79,0,0,0-47.91,8.78c-15.51,4.77-30.54,11-45.38,17.47-7.39,3.24-14.77,6.51-22.11,9.87A216.33,216.33,0,0,0,182,305.13a116.74,116.74,0,0,0-9.8,6.54c-.38.28,0,.93.38.64,12.57-9.35,27-15.66,41.21-22,14.76-6.59,29.57-13.13,44.8-18.57,15.05-5.37,30.56-9.67,46.45-11.68,16.67-2.11,33.56-1.61,50.24.16,8.61.91,17.19,2.16,25.75,3.56,4.13.68,8.26,1.4,12.38,2.13,4,.71,8,1.21,11.93,2.21,1.79.46,3.71,1.33,4.26,3.27s-.34,3.82-1.27,5.4c-2.08,3.55-4.8,6.82-7.21,10.15l-15,20.85c-9.56,13.25-19.05,26.57-29,39.54a444.36,444.36,0,0,1-31.8,37.38c-5.62,5.87-11.31,11.67-16.56,17.87s-9.75,12.61-14.38,19.09c-4.76,6.68-9.65,13.23-15,19.42s-10.87,11.84-16.56,17.5c-2.82,2.81-5.66,5.59-8.51,8.38a.38.38,0,0,0,.53.53Z" transform="translate(-9.3 -11.43)"/><path class="cls-7" d="M261,269.18c-26.17-8.39-54.18-8.53-81.39-9.25-13.94-.37-27.92-.46-41.82.85a168.27,168.27,0,0,0-20.47,3.11c-2.2.49-4.37,1.28-5.23,3.55-.8,2.1-.23,4.53.54,6.55a54.31,54.31,0,0,0,4.19,7.81q2.59,4.35,5.44,8.54a190.56,190.56,0,0,0,12,15.63c2.22,2.65,4.43,5.3,6.4,8.14a76.31,76.31,0,0,1,5.18,8.87c3.06,6,6,12,9.23,17.83,12.61,22.76,27.88,43.92,44,64.26,8.15,10.26,16.54,20.33,25,30.35q6.66,7.89,13.33,15.76l7,8.32c2,2.3,3.78,5,6.39,6.59,1.73,1.07,3.72,1.49,5.42.14.37-.3-.16-.83-.53-.53-2.59,2.06-5.9-1.06-7.55-2.95-2.28-2.62-4.48-5.29-6.72-7.94L228.25,439.2C220.09,429.54,212,419.85,204,410c-16-19.77-31.19-40.23-44.08-62.16q-4.78-8.14-9.1-16.56c-3-5.79-5.6-11.79-9.28-17.18s-8-9.92-11.91-14.93A171.21,171.21,0,0,1,118.44,283a85.22,85.22,0,0,1-4.54-8c-1.06-2.24-2.12-5.3-.92-7.69,1.38-2.78,5.64-2.95,8.32-3.47,3.42-.65,6.87-1.19,10.32-1.63a284.05,284.05,0,0,1,40.3-1.7c13.32.22,26.67.59,40,1.37s26.53,2.17,39.45,5.34q4.78,1.17,9.48,2.68c.46.15.66-.58.2-.72Z" transform="translate(-9.3 -11.43)"/><path class="cls-7" d="M183.33,275.71l6.93,0a.38.38,0,0,0,0-.75l-18.71-.07c-.41,0-.53.67-.1.74l25.4,3.94a.37.37,0,0,0,.2-.72c-9.15-3.14-18.89-3.19-28.44-3.18v.75c7.54-.66,15.12,1.12,22.62-.27a.38.38,0,0,0-.1-.74l-18,1.1.1.74a46.87,46.87,0,0,1,7.93-.64.38.38,0,0,0,0-.75,49.18,49.18,0,0,0-8.13.66c-.41.07-.32.76.1.74l18-1.1-.09-.73c-7.43,1.37-15-.42-22.43.24a.38.38,0,0,0,0,.75c9.49,0,19.15,0,28.24,3.15l.2-.72-25.4-3.94-.1.73,18.71.07V275l-6.93,0a.38.38,0,0,0,0,.75Z" transform="translate(-9.3 -11.43)"/><path d="M181.84,274.27c-2-21,1.79-41.92.51-62.88a102.5,102.5,0,0,0-2.46-17.27.38.38,0,0,0-.73.2c4.86,20.52,1.75,41.67,1.37,62.47a159.35,159.35,0,0,0,.56,17.48c0,.47.79.48.75,0Z" transform="translate(-9.3 -11.43)"/><path class="cls-8" d="M179.76,194.2c.49,1.94,1,3.88,1.43,5.83.08.35.67.37.73,0a2.13,2.13,0,0,0-.34-1.45.38.38,0,0,0-.69.09c-.37,1.24.36,2.32.68,3.48a.38.38,0,0,0,.73-.2,4.52,4.52,0,0,0-.37-1.07.38.38,0,0,0-.68.09,2.53,2.53,0,0,0,.15,1.39c.18.44.91.25.72-.2a1.87,1.87,0,0,1-.15-1l-.68.09a4,4,0,0,1,.28.89l.73-.2c-.28-1-1-2-.68-3.08l-.69.09a1.37,1.37,0,0,1,.26.87h.73c-.45-2-.95-3.89-1.44-5.83-.11-.46-.84-.27-.72.2Z" transform="translate(-9.3 -11.43)"/><path class="cls-9" d="M180.09,195.21l2.61,23.6a3,3,0,0,0,5.12,2.12,15.82,15.82,0,0,1,4.84-3.22,34.63,34.63,0,0,1,6.45-1.46,27.2,27.2,0,0,0,5.87-1.13,31.79,31.79,0,0,1,6.53-1.6c1.6-.25,2.49-2.25,2.1-3.69a3.08,3.08,0,0,0-3.69-2.1,35.53,35.53,0,0,0-6.91,1.75c-2.06.77-4.3.76-6.45,1.14a30.22,30.22,0,0,0-7.07,1.93,25.49,25.49,0,0,0-5.92,4.13l5.13,2.13-2.61-23.6a3.09,3.09,0,0,0-3-3c-1.48,0-3.18,1.37-3,3Z" transform="translate(-9.3 -11.43)"/><path class="cls-10" d="M212.22,207.67c-4.86-2.28-9.31-5.29-13.89-8.07a76.64,76.64,0,0,0-6.84-3.73,19.43,19.43,0,0,1-3.19-1.76,8.16,8.16,0,0,0-3.5-1.69,3.11,3.11,0,0,0-3.69,2.1c-.39,1.4.48,3.46,2.09,3.69a5.64,5.64,0,0,1,2.37,1.3,25.66,25.66,0,0,0,3.28,1.73,74.47,74.47,0,0,1,6.83,3.78,144.38,144.38,0,0,0,13.52,7.84,3.09,3.09,0,0,0,4.1-1.08,3,3,0,0,0-1.08-4.11Z" transform="translate(-9.3 -11.43)"/><path class="cls-11" d="M185.21,203.73a3.31,3.31,0,0,1,.29,1.14c.05-.72,0,0,0,.15s0,.31,0,.47c0,.84,0,1.68.07,2.52a17.86,17.86,0,0,0,1.22,5.36,3.09,3.09,0,0,0,3.69,2.09c1.92-.4,3.79-1,5.7-1.45.47-.11.94-.21,1.42-.3a4.33,4.33,0,0,1,.72-.12l-.32,0,.47,0a13.21,13.21,0,0,1,2.88,0,3,3,0,0,0,2.12-5.12,41.31,41.31,0,0,0-6.37-4.37c-1-.56-2.1-1.08-3.19-1.54l-.82-.35c-.31-.13-.28-.11.09,0a8.75,8.75,0,0,1-.83-.37c-.27-.13-.54-.27-.79-.42s-.91-.68-.31-.18a3,3,0,0,0-4.25,4.24l2,2.47.48.59c.06.08.54.74.29.37s.45.59.09.09c-.08-.22-.08-.21,0,.05.11-1.05.09-1.31-.07-.8a3,3,0,0,0,2.1,3.69,3.08,3.08,0,0,0,3.69-2.09c.73-2-.48-3.84-1.7-5.35l-2.64-3.26L187,205.54a13.46,13.46,0,0,0,3.36,2l.93.39c-.38-.16-.4-.17-.09,0l.87.39c.53.25,1.06.51,1.58.79a34.38,34.38,0,0,1,3.05,1.8c.5.33,1,.66,1.46,1,.11.08,1,.69.33.25.26.18.5.39.74.59l2.12-5.12c-4.27-.51-8.36,1.19-12.47,2.07l3.69,2.09a15.29,15.29,0,0,1-.74-2.29c-.07-.27-.33-.92-.24-1.19.05.36.06.43,0,.2s0-.24,0-.36,0-.4,0-.6a18.48,18.48,0,0,0-.56-5.4,3,3,0,1,0-5.78,1.6Z" transform="translate(-9.3 -11.43)"/><path class="cls-8" d="M184.64,192.8a8.12,8.12,0,0,0-2-1.22,8.51,8.51,0,0,0-2.28-.59,1.06,1.06,0,0,0-.88.44,1.2,1.2,0,0,0-.2,1l.37,2.11a1.1,1.1,0,0,0,.51.68,1.15,1.15,0,0,0,.87.11,1.13,1.13,0,0,0,.67-.52,1.3,1.3,0,0,0,.12-.87l-.37-2.11-1.09,1.42.12,0-.3,0a6.93,6.93,0,0,1,1.73.47l-.27-.11a6.41,6.41,0,0,1,1.45.85l-.23-.18.18.14a1.2,1.2,0,0,0,.8.33,1.13,1.13,0,0,0,.79-1.92Z" transform="translate(-9.3 -11.43)"/><path class="cls-8" d="M189.71,215.84a29.6,29.6,0,0,0-7.09,6.63l2.09.57q-.17-5.61-.1-11.24a1.13,1.13,0,0,0-2.25,0q-.06,5.63.1,11.24a1.17,1.17,0,0,0,.83,1.09,1.19,1.19,0,0,0,1.27-.52,26.43,26.43,0,0,1,6.29-5.83c1.2-.79.07-2.74-1.14-1.94Z" transform="translate(-9.3 -11.43)"/><path class="cls-8" d="M184.64,223.25l0,0-.18.23a10.63,10.63,0,0,1,1.93-1.92l-.23.17.52-.37-1.36-1.77a28.41,28.41,0,0,1-2.23,2.42,1.2,1.2,0,0,0-.33.8,1.16,1.16,0,0,0,.33.79,1.14,1.14,0,0,0,1.59,0,26.86,26.86,0,0,0,2.23-2.42,1.2,1.2,0,0,0,.33-.8,1.13,1.13,0,0,0-1.69-1,12.56,12.56,0,0,0-1.56,1.25,11.63,11.63,0,0,0-1.32,1.49,1.15,1.15,0,0,0-.12.87,1.2,1.2,0,0,0,.52.67,1.11,1.11,0,0,0,.87.11l.27-.11a1.1,1.1,0,0,0,.4-.4Z" transform="translate(-9.3 -11.43)"/><path class="cls-8" d="M187.35,217.89a3.61,3.61,0,0,0-.8.76l-.29.39c-.06.08-.25.26-.27.36,0-.06.13-.16,0,0a1.46,1.46,0,0,1-.16.19c-.08.11-.17.21-.26.32s-.37.43-.57.64c-.38.4-.78.79-1.2,1.16l-.63.52s-.26.21,0,0l-.16.12-.37.27a1.16,1.16,0,0,0-.4,1.54,1.14,1.14,0,0,0,1.54.4,19.64,19.64,0,0,0,2.73-2.33c.38-.41.75-.83,1.1-1.27.21-.26.41-.53.61-.81l.14-.18c-.06.1-.11.14,0,0l.13-.14c.05-.05.24-.18,0,0a1.16,1.16,0,0,0,.41-1.54,1.14,1.14,0,0,0-1.54-.4Z" transform="translate(-9.3 -11.43)"/><path d="M182.58,226.17c.54-6,0-12-.5-18a99.89,99.89,0,0,0-3-17.24l-.46.46c7,1.34,13.24,4.61,19.28,8.18,5.55,3.27,10.08,8.12,15.91,10.92.36.18.78-.27.45-.59-.77-.74-1.77.26-2.45.69a20.77,20.77,0,0,1-4.55,2.2c-3.2,1-6.53,1.52-9.7,2.7a45.92,45.92,0,0,0-15.78,9.91c-.35.34.18.87.53.54a44.85,44.85,0,0,1,15.06-9.58,72.11,72.11,0,0,1,8.39-2.37,21.07,21.07,0,0,0,3.8-1.31c.44-.2,4-2.45,4.17-2.25l.46-.58c-6-2.88-10.6-7.84-16.31-11.16-6-3.49-12.19-6.7-19.06-8a.37.37,0,0,0-.46.46,101.09,101.09,0,0,1,3,17.53c.46,5.82,1,11.69.46,17.52-.05.48.7.48.75,0Z" transform="translate(-9.3 -11.43)"/></g><g id="Layer_2" data-name="Layer 2"><text class="cls-12" transform="translate(1 377.03) scale(0.96 1)">s<tspan class="cls-13" x="68.07" y="0">m</tspan><tspan class="cls-14" x="224.84" y="0">golf</tspan></text></g><g id="Layer_8" data-name="Layer 8"><circle class="cls-15" cx="183.01" cy="339.71" r="29.54"/></g><g id="Layer_7" data-name="Layer 7"><path class="cls-16" d="M166.85,347.9c.19,6.41,4.53,12.57,8.8,17.07a42.08,42.08,0,0,0,15.63,10.36c.45.17.65-.56.2-.73a41.2,41.2,0,0,1-15-9.88c-4.22-4.38-8.66-10.52-8.84-16.82a.38.38,0,0,0-.75,0Z" transform="translate(-9.3 -11.43)"/><path class="cls-16" d="M182.93,300.93a4.5,4.5,0,1,0-4.5-4.5,4.55,4.55,0,0,0,4.5,4.5Z" transform="translate(-9.3 -11.43)"/><path class="cls-16" d="M201,300.26a4.5,4.5,0,1,0-4.5-4.5,4.55,4.55,0,0,0,4.5,4.5Z" transform="translate(-9.3 -11.43)"/><path class="cls-17" d="M179.46,290.77a8.08,8.08,0,0,0-2.8,3,4.29,4.29,0,0,0-.25,4.28,11.85,11.85,0,0,0,2.57,3.08,8.16,8.16,0,0,0,3.7,1.91,3.82,3.82,0,0,0,2.22-.11c.62-.22,1.81-.42,2.13-1.08.14-.28-.21.08,0,0a2.12,2.12,0,0,0,.35-.23,4.45,4.45,0,0,0,.71-.66,7,7,0,0,0,1.07-1.85,6.72,6.72,0,0,0,.71-3.9,7.57,7.57,0,0,0-2.24-3.65,6.82,6.82,0,0,0-4.53-1.94c-1.62,0-3.52.23-4,2a1.13,1.13,0,0,0,2.17.6c.11-.4.83-.38,1.16-.39a4.82,4.82,0,0,1,2,.21,6.09,6.09,0,0,1,2.83,2.62,2.43,2.43,0,0,1,.47,1.64,9.44,9.44,0,0,1-.58,1.85,3,3,0,0,1-1.34,1.8,2.42,2.42,0,0,0-.66.73l.4-.4c.13-.09-.17.08-.24.11l-.53.19a4.35,4.35,0,0,1-1,.33,4.48,4.48,0,0,1-1.71-.45,7.55,7.55,0,0,1-2.68-2.25c-.7-.8-1.45-1.68-1-2.8a5.91,5.91,0,0,1,2.27-2.76c1.26-.7.13-2.65-1.14-1.94Z" transform="translate(-9.3 -11.43)"/><path class="cls-17" d="M197.48,290a6.75,6.75,0,0,0-3.18,6.48,5.7,5.7,0,0,0,1.68,3.59,5.88,5.88,0,0,0,1.65.94,19.78,19.78,0,0,0,2,.77,6.33,6.33,0,0,0,2.07.3,4.47,4.47,0,0,0,2-.72,10,10,0,0,0,3.08-2.5,6.31,6.31,0,0,0,1.16-3.81,5.34,5.34,0,0,0-1.54-3.53,13,13,0,0,0-1.6-1.46,4.29,4.29,0,0,0-2.33-.77,12.16,12.16,0,0,0-4.73.27c-1.38.43-.8,2.6.59,2.17a9.17,9.17,0,0,1,3.13-.27,9.34,9.34,0,0,1,1.4.13,2.47,2.47,0,0,1,1.12.71,5.17,5.17,0,0,1,1.6,2,3.81,3.81,0,0,1-.25,2.57,4.69,4.69,0,0,1-1.89,2,3.54,3.54,0,0,1-2.42.92,10.57,10.57,0,0,1-2.88-1,2.7,2.7,0,0,1-1.5-1.89,4.45,4.45,0,0,1,2-5c1.22-.77.09-2.72-1.14-1.94Z" transform="translate(-9.3 -11.43)"/><path class="cls-18" d="M160.2,359.6c3.86,0,3.87-6,0-6s-3.86,6,0,6Z" transform="translate(-9.3 -11.43)"/><path class="cls-18" d="M164.89,368.23c3.86,0,3.87-6,0-6s-3.87,6,0,6Z" transform="translate(-9.3 -11.43)"/><path class="cls-18" d="M171.1,376.25c3.86,0,3.87-6,0-6s-3.86,6,0,6Z" transform="translate(-9.3 -11.43)"/><path class="cls-18" d="M179.85,383c3.86,0,3.86-6,0-6s-3.87,6,0,6Z" transform="translate(-9.3 -11.43)"/><path class="cls-18" d="M181.11,372.54c2.9,0,2.91-4.5,0-4.5s-2.9,4.5,0,4.5Z" transform="translate(-9.3 -11.43)"/><path class="cls-18" d="M174.52,367.36c2.9,0,2.9-4.5,0-4.5s-2.9,4.5,0,4.5Z" transform="translate(-9.3 -11.43)"/><path class="cls-18" d="M169.2,359.84c2.9,0,2.9-4.5,0-4.5s-2.9,4.5,0,4.5Z" transform="translate(-9.3 -11.43)"/><path class="cls-18" d="M182.13,364.51a1.5,1.5,0,0,0,0-3,1.5,1.5,0,0,0,0,3Z" transform="translate(-9.3 -11.43)"/><path class="cls-18" d="M177.31,359a1.5,1.5,0,0,0,0-3,1.5,1.5,0,0,0,0,3Z" transform="translate(-9.3 -11.43)"/><path class="cls-18" d="M166.34,351.78a1.5,1.5,0,0,0,0-3,1.5,1.5,0,0,0,0,3Z" transform="translate(-9.3 -11.43)"/><path class="cls-18" d="M187.35,376.23a1.5,1.5,0,0,0,0-3,1.5,1.5,0,0,0,0,3Z" transform="translate(-9.3 -11.43)"/><path class="cls-18" d="M188,385.8c2.89,0,2.9-4.5,0-4.5s-2.9,4.5,0,4.5Z" transform="translate(-9.3 -11.43)"/><path class="cls-18" d="M157.9,349.52c2.9,0,2.9-4.5,0-4.5s-2.9,4.5,0,4.5Z" transform="translate(-9.3 -11.43)"/><path class="cls-18" d="M158.21,341.15a1.5,1.5,0,0,0,0-3,1.5,1.5,0,0,0,0,3Z" transform="translate(-9.3 -11.43)"/><path class="cls-18" d="M195.48,386.45a1.5,1.5,0,0,0,0-3,1.5,1.5,0,0,0,0,3Z" transform="translate(-9.3 -11.43)"/><path class="cls-18" d="M173.54,350.75a1.13,1.13,0,0,0,0-2.25,1.13,1.13,0,0,0,0,2.25Z" transform="translate(-9.3 -11.43)"/><path class="cls-18" d="M164.64,344.3a1.13,1.13,0,0,0,0-2.25,1.13,1.13,0,0,0,0,2.25Z" transform="translate(-9.3 -11.43)"/><path class="cls-18" d="M188.71,368.28a1.13,1.13,0,0,0,0-2.25,1.13,1.13,0,0,0,0,2.25Z" transform="translate(-9.3 -11.43)"/><path class="cls-18" d="M194.77,378.79a1.13,1.13,0,0,0,0-2.25,1.13,1.13,0,0,0,0,2.25Z" transform="translate(-9.3 -11.43)"/><g class="cls-19"><path class="cls-18" d="M188.36,362.16a1.13,1.13,0,0,0,0-2.25,1.13,1.13,0,0,0,0,2.25Z" transform="translate(-9.3 -11.43)"/></g><g class="cls-19"><path class="cls-18" d="M180.22,351.87a1.13,1.13,0,0,0,0-2.25,1.13,1.13,0,0,0,0,2.25Z" transform="translate(-9.3 -11.43)"/></g><g class="cls-19"><path class="cls-18" d="M184.67,356.83a1.13,1.13,0,0,0,0-2.25,1.13,1.13,0,0,0,0,2.25Z" transform="translate(-9.3 -11.43)"/></g><g class="cls-20"><path class="cls-18" d="M186.2,351.5a1.13,1.13,0,0,0,0-2.25,1.13,1.13,0,0,0,0,2.25Z" transform="translate(-9.3 -11.43)"/></g><g class="cls-20"><path class="cls-18" d="M191.16,356.33a1.13,1.13,0,0,0,0-2.25,1.13,1.13,0,0,0,0,2.25Z" transform="translate(-9.3 -11.43)"/></g><g class="cls-21"><path class="cls-18" d="M192.44,349.52a1.13,1.13,0,0,0,0-2.25,1.13,1.13,0,0,0,0,2.25Z" transform="translate(-9.3 -11.43)"/></g><path class="cls-18" d="M171.53,344.29a1.5,1.5,0,0,0,0-3,1.5,1.5,0,0,0,0,3Z" transform="translate(-9.3 -11.43)"/><path class="cls-18" d="M195.69,372.38a1.5,1.5,0,0,0,0-3,1.5,1.5,0,0,0,0,3Z" transform="translate(-9.3 -11.43)"/><g class="cls-22"><path class="cls-18" d="M179.07,345.67a1.5,1.5,0,0,0,0-3,1.5,1.5,0,0,0,0,3Z" transform="translate(-9.3 -11.43)"/></g><g class="cls-22"><path class="cls-18" d="M196.45,364.62a1.5,1.5,0,0,0,0-3,1.5,1.5,0,0,0,0,3Z" transform="translate(-9.3 -11.43)"/></g><ellipse class="cls-23" cx="183.01" cy="339.71" rx="41.29" ry="40.41"/></g></svg>